<?xml version="1.0" encoding="UTF-8"?>
<svg id="Layer_1" data-name="Layer 1" xmlns="http://www.w3.org/2000/svg" viewBox="0 0 1920 1014.11">
  <defs>
    <style>
      .cls-1 {
        fill: #be9449;
        stroke-width: 0px;
      }
    </style>
  </defs>
  <path class="cls-1" d="M779.41,950.88h-272.38c-244.76,0-443.87-199.12-443.87-443.86S262.27,63.16,507.03,63.16h272.38c17.44,0,31.58-14.13,31.58-31.58s-14.13-31.58-31.58-31.58h-272.38C227.46,0,0,227.45,0,507.02s227.46,507.02,507.03,507.02h272.38c17.44,0,31.58-14.13,31.58-31.58s-14.13-31.58-31.58-31.58Z"/>
  <path class="cls-1" d="M779.41,792.53h-272.38c-157.44,0-285.52-128.08-285.52-285.51S349.59,221.51,507.03,221.51h272.38c17.44,0,31.58-14.13,31.58-31.58s-14.13-31.58-31.58-31.58h-272.38c-192.26,0-348.68,156.41-348.68,348.67s156.42,348.67,348.68,348.67h272.38c17.44,0,31.58-14.13,31.58-31.58s-14.13-31.58-31.58-31.58Z"/>
  <path class="cls-1" d="M1888.42,0c-17.44,0-31.58,14.13-31.58,31.58v285.25h-95.29V31.58c0-17.44-14.13-31.58-31.58-31.58s-31.58,14.13-31.58,31.58v285.25h-95.29V31.58c0-17.44-14.13-31.58-31.58-31.58s-31.58,14.13-31.58,31.58v285.25h-253.73V31.58c0-17.44-14.13-31.58-31.58-31.58s-31.58,14.13-31.58,31.58v285.25h-95.26V31.58c0-17.44-14.13-31.58-31.58-31.58s-31.58,14.13-31.58,31.58v285.25h-95.33V31.58c0-17.44-14.13-31.58-31.58-31.58s-31.58,14.13-31.58,31.58v285.25h-399.15c-104.88,0-190.19,85.32-190.19,190.19s85.32,190.19,190.19,190.19h399.15v285.32c0,17.44,14.13,31.58,31.58,31.58s31.58-14.13,31.58-31.58v-285.32h95.33v285.32c0,17.44,14.13,31.58,31.58,31.58s31.58-14.13,31.58-31.58v-285.32h95.26v285.32c0,17.44,14.13,31.58,31.58,31.58s31.58-14.13,31.58-31.58v-285.32h253.73v285.32c0,17.44,14.13,31.58,31.58,31.58s31.58-14.13,31.58-31.58v-285.32h95.29v285.32c0,17.44,14.13,31.58,31.58,31.58s31.58-14.13,31.58-31.58v-285.32h95.29v285.32c0,17.44,14.13,31.58,31.58,31.58s31.58-14.13,31.58-31.58v-316.83s0-.02,0-.03,0-.02,0-.03c0-17.44-14.13-31.58-31.58-31.58H507.03c-70.05,0-127.04-56.99-127.04-127.04s56.99-127.04,127.04-127.04h1381.39c17.44,0,31.58-14.13,31.58-31.58V31.58c0-17.44-14.13-31.58-31.58-31.58Z"/>
  <path class="cls-1" d="M1888.42,474.9H507.03c-17.44,0-31.58,14.13-31.58,31.58s14.13,31.58,31.58,31.58h1381.39c17.44,0,31.58-14.13,31.58-31.58s-14.13-31.58-31.58-31.58Z"/>
</svg>