<svg xmlns="http://www.w3.org/2000/svg" xmlns:xlink="http://www.w3.org/1999/xlink" width="500" zoomAndPan="magnify" viewBox="0 0 375 74.999997" height="100" preserveAspectRatio="xMidYMid meet" version="1.0"><defs><g/></defs><rect x="-37.5" width="450" fill="#ffffff" y="-7.5" height="89.999996" fill-opacity="1"/><rect x="-37.5" width="450" fill="#ffffff" y="-7.5" height="89.999996" fill-opacity="1"/><g fill="#000000" fill-opacity="1"><g transform="translate(0.0000075, 42.441187)"><g><path d="M 4.6875 -34.953125 L 19.96875 -34.953125 C 23.695312 -34.953125 27.007812 -34.226562 29.90625 -32.78125 C 32.800781 -31.332031 35.046875 -29.285156 36.640625 -26.640625 C 38.242188 -23.992188 39.046875 -20.941406 39.046875 -17.484375 C 39.046875 -14.015625 38.242188 -10.957031 36.640625 -8.3125 C 35.046875 -5.664062 32.800781 -3.617188 29.90625 -2.171875 C 27.007812 -0.722656 23.695312 0 19.96875 0 L 4.6875 0 Z M 19.671875 -5.5 C 22.234375 -5.5 24.488281 -5.988281 26.4375 -6.96875 C 28.382812 -7.945312 29.882812 -9.34375 30.9375 -11.15625 C 31.988281 -12.96875 32.515625 -15.078125 32.515625 -17.484375 C 32.515625 -19.878906 31.988281 -21.984375 30.9375 -23.796875 C 29.882812 -25.609375 28.382812 -27.003906 26.4375 -27.984375 C 24.488281 -28.972656 22.234375 -29.46875 19.671875 -29.46875 L 11.1875 -29.46875 L 11.1875 -5.5 Z M 19.671875 -5.5 "/></g></g></g><g fill="#000000" fill-opacity="1"><g transform="translate(41.746809, 42.441187)"><g><path d="M 4.6875 -34.953125 L 11.1875 -34.953125 L 11.1875 0 L 4.6875 0 Z M 4.6875 -34.953125 "/></g></g></g><g fill="#000000" fill-opacity="1"><g transform="translate(58.175885, 42.441187)"><g><path d="M 29.46875 -18.171875 C 31.394531 -17.546875 32.921875 -16.488281 34.046875 -15 C 35.179688 -13.519531 35.75 -11.679688 35.75 -9.484375 C 35.75 -6.453125 34.582031 -4.113281 32.25 -2.46875 C 29.925781 -0.820312 26.535156 0 22.078125 0 L 4.6875 0 L 4.6875 -34.953125 L 21.078125 -34.953125 C 25.203125 -34.953125 28.378906 -34.144531 30.609375 -32.53125 C 32.835938 -30.914062 33.953125 -28.695312 33.953125 -25.875 C 33.953125 -24.132812 33.550781 -22.597656 32.75 -21.265625 C 31.957031 -19.941406 30.863281 -18.910156 29.46875 -18.171875 Z M 11.1875 -29.859375 L 11.1875 -20.21875 L 20.375 -20.21875 C 22.632812 -20.21875 24.375 -20.625 25.59375 -21.4375 C 26.8125 -22.257812 27.421875 -23.453125 27.421875 -25.015625 C 27.421875 -26.617188 26.8125 -27.828125 25.59375 -28.640625 C 24.375 -29.453125 22.632812 -29.859375 20.375 -29.859375 Z M 21.671875 -5.09375 C 26.703125 -5.09375 29.21875 -6.773438 29.21875 -10.140625 C 29.21875 -13.503906 26.703125 -15.1875 21.671875 -15.1875 L 11.1875 -15.1875 L 11.1875 -5.09375 Z M 21.671875 -5.09375 "/></g></g></g><g fill="#000000" fill-opacity="1"><g transform="translate(96.67683, 42.441187)"><g><path d="M 15.53125 0.5 C 12.832031 0.5 10.222656 0.117188 7.703125 -0.640625 C 5.191406 -1.410156 3.207031 -2.429688 1.75 -3.703125 L 4 -8.734375 C 5.425781 -7.609375 7.179688 -6.6875 9.265625 -5.96875 C 11.347656 -5.25 13.4375 -4.890625 15.53125 -4.890625 C 18.125 -4.890625 20.0625 -5.304688 21.34375 -6.140625 C 22.625 -6.972656 23.265625 -8.070312 23.265625 -9.4375 C 23.265625 -10.4375 22.90625 -11.257812 22.1875 -11.90625 C 21.476562 -12.5625 20.570312 -13.070312 19.46875 -13.4375 C 18.375 -13.800781 16.878906 -14.21875 14.984375 -14.6875 C 12.316406 -15.3125 10.160156 -15.941406 8.515625 -16.578125 C 6.867188 -17.210938 5.453125 -18.203125 4.265625 -19.546875 C 3.085938 -20.898438 2.5 -22.722656 2.5 -25.015625 C 2.5 -26.953125 3.019531 -28.707031 4.0625 -30.28125 C 5.113281 -31.863281 6.695312 -33.117188 8.8125 -34.046875 C 10.925781 -34.984375 13.515625 -35.453125 16.578125 -35.453125 C 18.710938 -35.453125 20.8125 -35.1875 22.875 -34.65625 C 24.9375 -34.125 26.71875 -33.359375 28.21875 -32.359375 L 26.171875 -27.3125 C 24.640625 -28.21875 23.039062 -28.898438 21.375 -29.359375 C 19.707031 -29.828125 18.09375 -30.0625 16.53125 -30.0625 C 13.96875 -30.0625 12.0625 -29.628906 10.8125 -28.765625 C 9.5625 -27.898438 8.9375 -26.75 8.9375 -25.3125 C 8.9375 -24.3125 9.296875 -23.492188 10.015625 -22.859375 C 10.734375 -22.234375 11.640625 -21.738281 12.734375 -21.375 C 13.828125 -21.007812 15.328125 -20.59375 17.234375 -20.125 C 19.828125 -19.519531 21.957031 -18.894531 23.625 -18.25 C 25.289062 -17.601562 26.710938 -16.613281 27.890625 -15.28125 C 29.066406 -13.945312 29.65625 -12.148438 29.65625 -9.890625 C 29.65625 -7.953125 29.128906 -6.203125 28.078125 -4.640625 C 27.035156 -3.078125 25.445312 -1.828125 23.3125 -0.890625 C 21.1875 0.0351562 18.59375 0.5 15.53125 0.5 Z M 15.53125 0.5 "/></g></g></g><g fill="#0ec22b" fill-opacity="1"><g transform="translate(128.586286, 42.441187)"><g><path d="M 20.875 0.5 C 17.34375 0.5 14.15625 -0.269531 11.3125 -1.8125 C 8.46875 -3.363281 6.238281 -5.503906 4.625 -8.234375 C 3.007812 -10.960938 2.203125 -14.046875 2.203125 -17.484375 C 2.203125 -20.910156 3.015625 -23.988281 4.640625 -26.71875 C 6.273438 -29.445312 8.515625 -31.582031 11.359375 -33.125 C 14.203125 -34.675781 17.390625 -35.453125 20.921875 -35.453125 C 23.785156 -35.453125 26.398438 -34.953125 28.765625 -33.953125 C 31.128906 -32.953125 33.125 -31.503906 34.75 -29.609375 L 30.5625 -25.671875 C 28.03125 -28.398438 24.914062 -29.765625 21.21875 -29.765625 C 18.820312 -29.765625 16.675781 -29.238281 14.78125 -28.1875 C 12.882812 -27.132812 11.398438 -25.675781 10.328125 -23.8125 C 9.265625 -21.957031 8.734375 -19.847656 8.734375 -17.484375 C 8.734375 -15.117188 9.265625 -13.003906 10.328125 -11.140625 C 11.398438 -9.273438 12.882812 -7.816406 14.78125 -6.765625 C 16.675781 -5.710938 18.820312 -5.1875 21.21875 -5.1875 C 24.914062 -5.1875 28.03125 -6.570312 30.5625 -9.34375 L 34.75 -5.34375 C 33.125 -3.445312 31.117188 -2 28.734375 -1 C 26.359375 0 23.738281 0.5 20.875 0.5 Z M 20.875 0.5 "/></g></g></g><g fill="#0ec22b" fill-opacity="1"><g transform="translate(165.38939, 42.441187)"><g><path d="M 27.359375 -8.09375 L 9.890625 -8.09375 L 6.4375 0 L -0.25 0 L 15.484375 -34.953125 L 21.875 -34.953125 L 37.65625 0 L 30.859375 0 Z M 25.21875 -13.1875 L 18.625 -28.46875 L 12.078125 -13.1875 Z M 25.21875 -13.1875 "/></g></g></g><g fill="#0ec22b" fill-opacity="1"><g transform="translate(203.291102, 42.441187)"><g><path d="M 19.078125 -34.953125 C 22.109375 -34.953125 24.742188 -34.453125 26.984375 -33.453125 C 29.234375 -32.453125 30.957031 -31.019531 32.15625 -29.15625 C 33.351562 -27.289062 33.953125 -25.078125 33.953125 -22.515625 C 33.953125 -19.984375 33.351562 -17.773438 32.15625 -15.890625 C 30.957031 -14.015625 29.234375 -12.578125 26.984375 -11.578125 C 24.742188 -10.585938 22.109375 -10.09375 19.078125 -10.09375 L 11.1875 -10.09375 L 11.1875 0 L 4.6875 0 L 4.6875 -34.953125 Z M 18.78125 -15.578125 C 21.601562 -15.578125 23.75 -16.175781 25.21875 -17.375 C 26.6875 -18.570312 27.421875 -20.285156 27.421875 -22.515625 C 27.421875 -24.753906 26.6875 -26.472656 25.21875 -27.671875 C 23.75 -28.867188 21.601562 -29.46875 18.78125 -29.46875 L 11.1875 -29.46875 L 11.1875 -15.578125 Z M 18.78125 -15.578125 "/></g></g></g><g fill="#0ec22b" fill-opacity="1"><g transform="translate(240.044276, 42.441187)"><g><path d="M 4.6875 -34.953125 L 11.1875 -34.953125 L 11.1875 0 L 4.6875 0 Z M 4.6875 -34.953125 "/></g></g></g><g fill="#0ec22b" fill-opacity="1"><g transform="translate(256.473353, 42.441187)"><g><path d="M 11.78125 -29.46875 L 0.203125 -29.46875 L 0.203125 -34.953125 L 29.859375 -34.953125 L 29.859375 -29.46875 L 18.28125 -29.46875 L 18.28125 0 L 11.78125 0 Z M 11.78125 -29.46875 "/></g></g></g><g fill="#0ec22b" fill-opacity="1"><g transform="translate(287.034407, 42.441187)"><g><path d="M 27.359375 -8.09375 L 9.890625 -8.09375 L 6.4375 0 L -0.25 0 L 15.484375 -34.953125 L 21.875 -34.953125 L 37.65625 0 L 30.859375 0 Z M 25.21875 -13.1875 L 18.625 -28.46875 L 12.078125 -13.1875 Z M 25.21875 -13.1875 "/></g></g></g><g fill="#0ec22b" fill-opacity="1"><g transform="translate(324.936111, 42.441187)"><g><path d="M 4.6875 -34.953125 L 11.1875 -34.953125 L 11.1875 -5.5 L 29.46875 -5.5 L 29.46875 0 L 4.6875 0 Z M 4.6875 -34.953125 "/></g></g></g><g fill="#000000" fill-opacity="1"><g transform="translate(355.348349, 42.441187)"><g/></g></g><g fill="#000000" fill-opacity="1"><g transform="translate(3.628375, 64.326886)"><g><path d="M 1.484375 -9.078125 L 5.171875 -9.078125 C 6.128906 -9.078125 6.972656 -8.882812 7.703125 -8.5 C 8.441406 -8.113281 9.015625 -7.578125 9.421875 -6.890625 C 9.828125 -6.203125 10.03125 -5.421875 10.03125 -4.546875 C 10.03125 -3.660156 9.828125 -2.875 9.421875 -2.1875 C 9.015625 -1.5 8.441406 -0.960938 7.703125 -0.578125 C 6.972656 -0.191406 6.128906 0 5.171875 0 L 1.484375 0 Z M 5.125 -0.828125 C 5.914062 -0.828125 6.609375 -0.984375 7.203125 -1.296875 C 7.804688 -1.617188 8.269531 -2.054688 8.59375 -2.609375 C 8.925781 -3.171875 9.09375 -3.816406 9.09375 -4.546875 C 9.09375 -5.265625 8.925781 -5.898438 8.59375 -6.453125 C 8.269531 -7.015625 7.804688 -7.453125 7.203125 -7.765625 C 6.609375 -8.085938 5.914062 -8.25 5.125 -8.25 L 2.4375 -8.25 L 2.4375 -0.828125 Z M 5.125 -0.828125 "/></g></g></g><g fill="#000000" fill-opacity="1"><g transform="translate(15.643923, 64.326886)"><g><path d="M 1.484375 -9.078125 L 2.4375 -9.078125 L 2.4375 0 L 1.484375 0 Z M 1.484375 -9.078125 "/></g></g></g><g fill="#000000" fill-opacity="1"><g transform="translate(20.867918, 64.326886)"><g><path d="M 7.875 -4.546875 L 8.796875 -4.546875 L 8.796875 -1.078125 C 8.367188 -0.703125 7.863281 -0.414062 7.28125 -0.21875 C 6.707031 -0.0195312 6.097656 0.078125 5.453125 0.078125 C 4.546875 0.078125 3.726562 -0.117188 3 -0.515625 C 2.28125 -0.910156 1.710938 -1.460938 1.296875 -2.171875 C 0.878906 -2.878906 0.671875 -3.671875 0.671875 -4.546875 C 0.671875 -5.410156 0.878906 -6.195312 1.296875 -6.90625 C 1.710938 -7.613281 2.28125 -8.164062 3 -8.5625 C 3.726562 -8.957031 4.550781 -9.15625 5.46875 -9.15625 C 6.164062 -9.15625 6.800781 -9.046875 7.375 -8.828125 C 7.957031 -8.609375 8.445312 -8.28125 8.84375 -7.84375 L 8.25 -7.234375 C 7.53125 -7.941406 6.617188 -8.296875 5.515625 -8.296875 C 4.773438 -8.296875 4.109375 -8.132812 3.515625 -7.8125 C 2.921875 -7.488281 2.457031 -7.039062 2.125 -6.46875 C 1.789062 -5.894531 1.625 -5.253906 1.625 -4.546875 C 1.625 -3.828125 1.789062 -3.179688 2.125 -2.609375 C 2.457031 -2.046875 2.914062 -1.597656 3.5 -1.265625 C 4.09375 -0.941406 4.757812 -0.78125 5.5 -0.78125 C 6.4375 -0.78125 7.226562 -1.015625 7.875 -1.484375 Z M 7.875 -4.546875 "/></g></g></g><g fill="#000000" fill-opacity="1"><g transform="translate(32.196535, 64.326886)"><g><path d="M 1.484375 -9.078125 L 2.4375 -9.078125 L 2.4375 0 L 1.484375 0 Z M 1.484375 -9.078125 "/></g></g></g><g fill="#000000" fill-opacity="1"><g transform="translate(37.42053, 64.326886)"><g><path d="M 3.25 -8.25 L 0.046875 -8.25 L 0.046875 -9.078125 L 7.390625 -9.078125 L 7.390625 -8.25 L 4.203125 -8.25 L 4.203125 0 L 3.25 0 Z M 3.25 -8.25 "/></g></g></g><g fill="#000000" fill-opacity="1"><g transform="translate(46.169912, 64.326886)"><g><path d="M 7.171875 -2.421875 L 2.109375 -2.421875 L 1.03125 0 L 0.03125 0 L 4.171875 -9.078125 L 5.125 -9.078125 L 9.265625 0 L 8.265625 0 Z M 6.828125 -3.203125 L 4.640625 -8.078125 L 2.46875 -3.203125 Z M 6.828125 -3.203125 "/></g></g></g><g fill="#000000" fill-opacity="1"><g transform="translate(56.77271, 64.326886)"><g><path d="M 1.484375 -9.078125 L 2.4375 -9.078125 L 2.4375 -0.828125 L 7.515625 -0.828125 L 7.515625 0 L 1.484375 0 Z M 1.484375 -9.078125 "/></g></g></g><g fill="#000000" fill-opacity="1"><g transform="translate(65.716506, 64.326886)"><g/></g></g><g fill="#000000" fill-opacity="1"><g transform="translate(70.422064, 64.326886)"><g><path d="M 1.484375 -9.078125 L 2.4375 -9.078125 L 2.4375 0 L 1.484375 0 Z M 1.484375 -9.078125 "/></g></g></g><g fill="#000000" fill-opacity="1"><g transform="translate(75.646063, 64.326886)"><g><path d="M 9.0625 -9.078125 L 9.0625 0 L 8.28125 0 L 2.4375 -7.359375 L 2.4375 0 L 1.484375 0 L 1.484375 -9.078125 L 2.265625 -9.078125 L 8.125 -1.71875 L 8.125 -9.078125 Z M 9.0625 -9.078125 "/></g></g></g><g fill="#000000" fill-opacity="1"><g transform="translate(87.493122, 64.326886)"><g><path d="M 9.03125 -9.078125 L 5 0 L 4.0625 0 L 0.03125 -9.078125 L 1.078125 -9.078125 L 4.546875 -1.1875 L 8.046875 -9.078125 Z M 9.03125 -9.078125 "/></g></g></g><g fill="#000000" fill-opacity="1"><g transform="translate(97.849669, 64.326886)"><g><path d="M 7.890625 -0.828125 L 7.890625 0 L 1.484375 0 L 1.484375 -9.078125 L 7.703125 -9.078125 L 7.703125 -8.25 L 2.4375 -8.25 L 2.4375 -5.015625 L 7.140625 -5.015625 L 7.140625 -4.203125 L 2.4375 -4.203125 L 2.4375 -0.828125 Z M 7.890625 -0.828125 "/></g></g></g><g fill="#000000" fill-opacity="1"><g transform="translate(107.83034, 64.326886)"><g><path d="M 3.984375 0.078125 C 3.304688 0.078125 2.65625 -0.03125 2.03125 -0.25 C 1.414062 -0.46875 0.941406 -0.753906 0.609375 -1.109375 L 0.984375 -1.84375 C 1.316406 -1.507812 1.753906 -1.238281 2.296875 -1.03125 C 2.835938 -0.832031 3.398438 -0.734375 3.984375 -0.734375 C 4.796875 -0.734375 5.40625 -0.882812 5.8125 -1.1875 C 6.21875 -1.488281 6.421875 -1.875 6.421875 -2.34375 C 6.421875 -2.707031 6.3125 -3 6.09375 -3.21875 C 5.875 -3.4375 5.601562 -3.601562 5.28125 -3.71875 C 4.957031 -3.832031 4.507812 -3.957031 3.9375 -4.09375 C 3.257812 -4.269531 2.71875 -4.4375 2.3125 -4.59375 C 1.90625 -4.757812 1.554688 -5.003906 1.265625 -5.328125 C 0.972656 -5.660156 0.828125 -6.109375 0.828125 -6.671875 C 0.828125 -7.128906 0.945312 -7.546875 1.1875 -7.921875 C 1.4375 -8.296875 1.8125 -8.59375 2.3125 -8.8125 C 2.8125 -9.039062 3.429688 -9.15625 4.171875 -9.15625 C 4.691406 -9.15625 5.203125 -9.082031 5.703125 -8.9375 C 6.203125 -8.800781 6.628906 -8.609375 6.984375 -8.359375 L 6.671875 -7.59375 C 6.285156 -7.84375 5.875 -8.03125 5.4375 -8.15625 C 5.007812 -8.28125 4.585938 -8.34375 4.171875 -8.34375 C 3.378906 -8.34375 2.78125 -8.1875 2.375 -7.875 C 1.976562 -7.570312 1.78125 -7.175781 1.78125 -6.6875 C 1.78125 -6.320312 1.890625 -6.03125 2.109375 -5.8125 C 2.328125 -5.59375 2.601562 -5.425781 2.9375 -5.3125 C 3.269531 -5.195312 3.71875 -5.066406 4.28125 -4.921875 C 4.945312 -4.765625 5.484375 -4.601562 5.890625 -4.4375 C 6.304688 -4.28125 6.65625 -4.039062 6.9375 -3.71875 C 7.21875 -3.394531 7.359375 -2.957031 7.359375 -2.40625 C 7.359375 -1.945312 7.234375 -1.523438 6.984375 -1.140625 C 6.742188 -0.765625 6.367188 -0.46875 5.859375 -0.25 C 5.347656 -0.03125 4.722656 0.078125 3.984375 0.078125 Z M 3.984375 0.078125 "/></g></g></g><g fill="#000000" fill-opacity="1"><g transform="translate(117.11112, 64.326886)"><g><path d="M 3.25 -8.25 L 0.046875 -8.25 L 0.046875 -9.078125 L 7.390625 -9.078125 L 7.390625 -8.25 L 4.203125 -8.25 L 4.203125 0 L 3.25 0 Z M 3.25 -8.25 "/></g></g></g><g fill="#000000" fill-opacity="1"><g transform="translate(125.860504, 64.326886)"><g><path d="M 10.90625 -9.078125 L 10.90625 0 L 9.984375 0 L 9.984375 -7.265625 L 6.421875 -1.15625 L 5.96875 -1.15625 L 2.40625 -7.21875 L 2.40625 0 L 1.484375 0 L 1.484375 -9.078125 L 2.265625 -9.078125 L 6.21875 -2.34375 L 10.109375 -9.078125 Z M 10.90625 -9.078125 "/></g></g></g><g fill="#000000" fill-opacity="1"><g transform="translate(139.548014, 64.326886)"><g><path d="M 7.890625 -0.828125 L 7.890625 0 L 1.484375 0 L 1.484375 -9.078125 L 7.703125 -9.078125 L 7.703125 -8.25 L 2.4375 -8.25 L 2.4375 -5.015625 L 7.140625 -5.015625 L 7.140625 -4.203125 L 2.4375 -4.203125 L 2.4375 -0.828125 Z M 7.890625 -0.828125 "/></g></g></g><g fill="#000000" fill-opacity="1"><g transform="translate(149.528691, 64.326886)"><g><path d="M 9.0625 -9.078125 L 9.0625 0 L 8.28125 0 L 2.4375 -7.359375 L 2.4375 0 L 1.484375 0 L 1.484375 -9.078125 L 2.265625 -9.078125 L 8.125 -1.71875 L 8.125 -9.078125 Z M 9.0625 -9.078125 "/></g></g></g><g fill="#000000" fill-opacity="1"><g transform="translate(161.37575, 64.326886)"><g><path d="M 3.25 -8.25 L 0.046875 -8.25 L 0.046875 -9.078125 L 7.390625 -9.078125 L 7.390625 -8.25 L 4.203125 -8.25 L 4.203125 0 L 3.25 0 Z M 3.25 -8.25 "/></g></g></g><g fill="#000000" fill-opacity="1"><g transform="translate(170.125135, 64.326886)"><g/></g></g><g fill="#000000" fill-opacity="1"><g transform="translate(174.830693, 64.326886)"><g><path d="M 7.203125 -4.6875 C 7.796875 -4.550781 8.253906 -4.289062 8.578125 -3.90625 C 8.898438 -3.519531 9.0625 -3.023438 9.0625 -2.421875 C 9.0625 -1.648438 8.773438 -1.050781 8.203125 -0.625 C 7.628906 -0.207031 6.78125 0 5.65625 0 L 1.484375 0 L 1.484375 -9.078125 L 5.390625 -9.078125 C 6.398438 -9.078125 7.179688 -8.875 7.734375 -8.46875 C 8.296875 -8.0625 8.578125 -7.488281 8.578125 -6.75 C 8.578125 -6.238281 8.453125 -5.804688 8.203125 -5.453125 C 7.960938 -5.109375 7.628906 -4.851562 7.203125 -4.6875 Z M 2.4375 -8.28125 L 2.4375 -5 L 5.328125 -5 C 6.066406 -5 6.632812 -5.140625 7.03125 -5.421875 C 7.425781 -5.703125 7.625 -6.109375 7.625 -6.640625 C 7.625 -7.171875 7.425781 -7.578125 7.03125 -7.859375 C 6.632812 -8.140625 6.066406 -8.28125 5.328125 -8.28125 Z M 5.640625 -0.796875 C 6.453125 -0.796875 7.066406 -0.929688 7.484375 -1.203125 C 7.898438 -1.484375 8.109375 -1.914062 8.109375 -2.5 C 8.109375 -3.632812 7.285156 -4.203125 5.640625 -4.203125 L 2.4375 -4.203125 L 2.4375 -0.796875 Z M 5.640625 -0.796875 "/></g></g></g><g fill="#000000" fill-opacity="1"><g transform="translate(185.913047, 64.326886)"><g><path d="M 7.171875 -2.421875 L 2.109375 -2.421875 L 1.03125 0 L 0.03125 0 L 4.171875 -9.078125 L 5.125 -9.078125 L 9.265625 0 L 8.265625 0 Z M 6.828125 -3.203125 L 4.640625 -8.078125 L 2.46875 -3.203125 Z M 6.828125 -3.203125 "/></g></g></g><g fill="#000000" fill-opacity="1"><g transform="translate(196.515836, 64.326886)"><g><path d="M 9.0625 -9.078125 L 9.0625 0 L 8.28125 0 L 2.4375 -7.359375 L 2.4375 0 L 1.484375 0 L 1.484375 -9.078125 L 2.265625 -9.078125 L 8.125 -1.71875 L 8.125 -9.078125 Z M 9.0625 -9.078125 "/></g></g></g><g fill="#000000" fill-opacity="1"><g transform="translate(208.362895, 64.326886)"><g><path d="M 4.296875 -4.265625 L 2.4375 -2.390625 L 2.4375 0 L 1.484375 0 L 1.484375 -9.078125 L 2.4375 -9.078125 L 2.4375 -3.59375 L 7.765625 -9.078125 L 8.875 -9.078125 L 4.9375 -4.96875 L 9.140625 0 L 8 0 Z M 4.296875 -4.265625 "/></g></g></g><g fill="#000000" fill-opacity="1"><g transform="translate(218.887933, 64.326886)"><g><path d="M 1.484375 -9.078125 L 2.4375 -9.078125 L 2.4375 0 L 1.484375 0 Z M 1.484375 -9.078125 "/></g></g></g><g fill="#000000" fill-opacity="1"><g transform="translate(224.111932, 64.326886)"><g><path d="M 9.0625 -9.078125 L 9.0625 0 L 8.28125 0 L 2.4375 -7.359375 L 2.4375 0 L 1.484375 0 L 1.484375 -9.078125 L 2.265625 -9.078125 L 8.125 -1.71875 L 8.125 -9.078125 Z M 9.0625 -9.078125 "/></g></g></g><g fill="#000000" fill-opacity="1"><g transform="translate(235.958991, 64.326886)"><g><path d="M 7.875 -4.546875 L 8.796875 -4.546875 L 8.796875 -1.078125 C 8.367188 -0.703125 7.863281 -0.414062 7.28125 -0.21875 C 6.707031 -0.0195312 6.097656 0.078125 5.453125 0.078125 C 4.546875 0.078125 3.726562 -0.117188 3 -0.515625 C 2.28125 -0.910156 1.710938 -1.460938 1.296875 -2.171875 C 0.878906 -2.878906 0.671875 -3.671875 0.671875 -4.546875 C 0.671875 -5.410156 0.878906 -6.195312 1.296875 -6.90625 C 1.710938 -7.613281 2.28125 -8.164062 3 -8.5625 C 3.726562 -8.957031 4.550781 -9.15625 5.46875 -9.15625 C 6.164062 -9.15625 6.800781 -9.046875 7.375 -8.828125 C 7.957031 -8.609375 8.445312 -8.28125 8.84375 -7.84375 L 8.25 -7.234375 C 7.53125 -7.941406 6.617188 -8.296875 5.515625 -8.296875 C 4.773438 -8.296875 4.109375 -8.132812 3.515625 -7.8125 C 2.921875 -7.488281 2.457031 -7.039062 2.125 -6.46875 C 1.789062 -5.894531 1.625 -5.253906 1.625 -4.546875 C 1.625 -3.828125 1.789062 -3.179688 2.125 -2.609375 C 2.457031 -2.046875 2.914062 -1.597656 3.5 -1.265625 C 4.09375 -0.941406 4.757812 -0.78125 5.5 -0.78125 C 6.4375 -0.78125 7.226562 -1.015625 7.875 -1.484375 Z M 7.875 -4.546875 "/></g></g></g><g fill="#000000" fill-opacity="1"><g transform="translate(247.28761, 64.326886)"><g/></g></g><g fill="#000000" fill-opacity="1"><g transform="translate(251.993168, 64.326886)"><g><path d="M 7.171875 -2.421875 L 2.109375 -2.421875 L 1.03125 0 L 0.03125 0 L 4.171875 -9.078125 L 5.125 -9.078125 L 9.265625 0 L 8.265625 0 Z M 6.828125 -3.203125 L 4.640625 -8.078125 L 2.46875 -3.203125 Z M 6.828125 -3.203125 "/></g></g></g><g fill="#000000" fill-opacity="1"><g transform="translate(262.595958, 64.326886)"><g><path d="M 3.984375 0.078125 C 3.304688 0.078125 2.65625 -0.03125 2.03125 -0.25 C 1.414062 -0.46875 0.941406 -0.753906 0.609375 -1.109375 L 0.984375 -1.84375 C 1.316406 -1.507812 1.753906 -1.238281 2.296875 -1.03125 C 2.835938 -0.832031 3.398438 -0.734375 3.984375 -0.734375 C 4.796875 -0.734375 5.40625 -0.882812 5.8125 -1.1875 C 6.21875 -1.488281 6.421875 -1.875 6.421875 -2.34375 C 6.421875 -2.707031 6.3125 -3 6.09375 -3.21875 C 5.875 -3.4375 5.601562 -3.601562 5.28125 -3.71875 C 4.957031 -3.832031 4.507812 -3.957031 3.9375 -4.09375 C 3.257812 -4.269531 2.71875 -4.4375 2.3125 -4.59375 C 1.90625 -4.757812 1.554688 -5.003906 1.265625 -5.328125 C 0.972656 -5.660156 0.828125 -6.109375 0.828125 -6.671875 C 0.828125 -7.128906 0.945312 -7.546875 1.1875 -7.921875 C 1.4375 -8.296875 1.8125 -8.59375 2.3125 -8.8125 C 2.8125 -9.039062 3.429688 -9.15625 4.171875 -9.15625 C 4.691406 -9.15625 5.203125 -9.082031 5.703125 -8.9375 C 6.203125 -8.800781 6.628906 -8.609375 6.984375 -8.359375 L 6.671875 -7.59375 C 6.285156 -7.84375 5.875 -8.03125 5.4375 -8.15625 C 5.007812 -8.28125 4.585938 -8.34375 4.171875 -8.34375 C 3.378906 -8.34375 2.78125 -8.1875 2.375 -7.875 C 1.976562 -7.570312 1.78125 -7.175781 1.78125 -6.6875 C 1.78125 -6.320312 1.890625 -6.03125 2.109375 -5.8125 C 2.328125 -5.59375 2.601562 -5.425781 2.9375 -5.3125 C 3.269531 -5.195312 3.71875 -5.066406 4.28125 -4.921875 C 4.945312 -4.765625 5.484375 -4.601562 5.890625 -4.4375 C 6.304688 -4.28125 6.65625 -4.039062 6.9375 -3.71875 C 7.21875 -3.394531 7.359375 -2.957031 7.359375 -2.40625 C 7.359375 -1.945312 7.234375 -1.523438 6.984375 -1.140625 C 6.742188 -0.765625 6.367188 -0.46875 5.859375 -0.25 C 5.347656 -0.03125 4.722656 0.078125 3.984375 0.078125 Z M 3.984375 0.078125 "/></g></g></g><g fill="#000000" fill-opacity="1"><g transform="translate(271.876726, 64.326886)"><g/></g></g><g fill="#000000" fill-opacity="1"><g transform="translate(276.582284, 64.326886)"><g><path d="M 7.171875 -2.421875 L 2.109375 -2.421875 L 1.03125 0 L 0.03125 0 L 4.171875 -9.078125 L 5.125 -9.078125 L 9.265625 0 L 8.265625 0 Z M 6.828125 -3.203125 L 4.640625 -8.078125 L 2.46875 -3.203125 Z M 6.828125 -3.203125 "/></g></g></g><g fill="#000000" fill-opacity="1"><g transform="translate(287.185073, 64.326886)"><g/></g></g><g fill="#000000" fill-opacity="1"><g transform="translate(291.890631, 64.326886)"><g><path d="M 3.984375 0.078125 C 3.304688 0.078125 2.65625 -0.03125 2.03125 -0.25 C 1.414062 -0.46875 0.941406 -0.753906 0.609375 -1.109375 L 0.984375 -1.84375 C 1.316406 -1.507812 1.753906 -1.238281 2.296875 -1.03125 C 2.835938 -0.832031 3.398438 -0.734375 3.984375 -0.734375 C 4.796875 -0.734375 5.40625 -0.882812 5.8125 -1.1875 C 6.21875 -1.488281 6.421875 -1.875 6.421875 -2.34375 C 6.421875 -2.707031 6.3125 -3 6.09375 -3.21875 C 5.875 -3.4375 5.601562 -3.601562 5.28125 -3.71875 C 4.957031 -3.832031 4.507812 -3.957031 3.9375 -4.09375 C 3.257812 -4.269531 2.71875 -4.4375 2.3125 -4.59375 C 1.90625 -4.757812 1.554688 -5.003906 1.265625 -5.328125 C 0.972656 -5.660156 0.828125 -6.109375 0.828125 -6.671875 C 0.828125 -7.128906 0.945312 -7.546875 1.1875 -7.921875 C 1.4375 -8.296875 1.8125 -8.59375 2.3125 -8.8125 C 2.8125 -9.039062 3.429688 -9.15625 4.171875 -9.15625 C 4.691406 -9.15625 5.203125 -9.082031 5.703125 -8.9375 C 6.203125 -8.800781 6.628906 -8.609375 6.984375 -8.359375 L 6.671875 -7.59375 C 6.285156 -7.84375 5.875 -8.03125 5.4375 -8.15625 C 5.007812 -8.28125 4.585938 -8.34375 4.171875 -8.34375 C 3.378906 -8.34375 2.78125 -8.1875 2.375 -7.875 C 1.976562 -7.570312 1.78125 -7.175781 1.78125 -6.6875 C 1.78125 -6.320312 1.890625 -6.03125 2.109375 -5.8125 C 2.328125 -5.59375 2.601562 -5.425781 2.9375 -5.3125 C 3.269531 -5.195312 3.71875 -5.066406 4.28125 -4.921875 C 4.945312 -4.765625 5.484375 -4.601562 5.890625 -4.4375 C 6.304688 -4.28125 6.65625 -4.039062 6.9375 -3.71875 C 7.21875 -3.394531 7.359375 -2.957031 7.359375 -2.40625 C 7.359375 -1.945312 7.234375 -1.523438 6.984375 -1.140625 C 6.742188 -0.765625 6.367188 -0.46875 5.859375 -0.25 C 5.347656 -0.03125 4.722656 0.078125 3.984375 0.078125 Z M 3.984375 0.078125 "/></g></g></g><g fill="#000000" fill-opacity="1"><g transform="translate(301.171399, 64.326886)"><g><path d="M 7.890625 -0.828125 L 7.890625 0 L 1.484375 0 L 1.484375 -9.078125 L 7.703125 -9.078125 L 7.703125 -8.25 L 2.4375 -8.25 L 2.4375 -5.015625 L 7.140625 -5.015625 L 7.140625 -4.203125 L 2.4375 -4.203125 L 2.4375 -0.828125 Z M 7.890625 -0.828125 "/></g></g></g><g fill="#000000" fill-opacity="1"><g transform="translate(311.152065, 64.326886)"><g><path d="M 7.671875 0 L 5.609375 -2.921875 C 5.367188 -2.890625 5.125 -2.875 4.875 -2.875 L 2.4375 -2.875 L 2.4375 0 L 1.484375 0 L 1.484375 -9.078125 L 4.875 -9.078125 C 6.03125 -9.078125 6.9375 -8.800781 7.59375 -8.25 C 8.25 -7.695312 8.578125 -6.9375 8.578125 -5.96875 C 8.578125 -5.257812 8.398438 -4.660156 8.046875 -4.171875 C 7.691406 -3.679688 7.179688 -3.328125 6.515625 -3.109375 L 8.734375 0 Z M 4.84375 -3.703125 C 5.75 -3.703125 6.4375 -3.898438 6.90625 -4.296875 C 7.382812 -4.691406 7.625 -5.25 7.625 -5.96875 C 7.625 -6.695312 7.382812 -7.257812 6.90625 -7.65625 C 6.4375 -8.050781 5.75 -8.25 4.84375 -8.25 L 2.4375 -8.25 L 2.4375 -3.703125 Z M 4.84375 -3.703125 "/></g></g></g><g fill="#000000" fill-opacity="1"><g transform="translate(321.832628, 64.326886)"><g><path d="M 9.03125 -9.078125 L 5 0 L 4.0625 0 L 0.03125 -9.078125 L 1.078125 -9.078125 L 4.546875 -1.1875 L 8.046875 -9.078125 Z M 9.03125 -9.078125 "/></g></g></g><g fill="#000000" fill-opacity="1"><g transform="translate(332.189164, 64.326886)"><g><path d="M 1.484375 -9.078125 L 2.4375 -9.078125 L 2.4375 0 L 1.484375 0 Z M 1.484375 -9.078125 "/></g></g></g><g fill="#000000" fill-opacity="1"><g transform="translate(337.413162, 64.326886)"><g><path d="M 5.421875 0.078125 C 4.523438 0.078125 3.710938 -0.117188 2.984375 -0.515625 C 2.265625 -0.910156 1.695312 -1.460938 1.28125 -2.171875 C 0.875 -2.878906 0.671875 -3.671875 0.671875 -4.546875 C 0.671875 -5.410156 0.875 -6.195312 1.28125 -6.90625 C 1.695312 -7.613281 2.265625 -8.164062 2.984375 -8.5625 C 3.710938 -8.957031 4.53125 -9.15625 5.4375 -9.15625 C 6.113281 -9.15625 6.734375 -9.039062 7.296875 -8.8125 C 7.867188 -8.59375 8.351562 -8.265625 8.75 -7.828125 L 8.140625 -7.21875 C 7.429688 -7.9375 6.535156 -8.296875 5.453125 -8.296875 C 4.742188 -8.296875 4.09375 -8.128906 3.5 -7.796875 C 2.914062 -7.472656 2.457031 -7.023438 2.125 -6.453125 C 1.789062 -5.890625 1.625 -5.253906 1.625 -4.546875 C 1.625 -3.828125 1.789062 -3.179688 2.125 -2.609375 C 2.457031 -2.046875 2.914062 -1.597656 3.5 -1.265625 C 4.09375 -0.941406 4.742188 -0.78125 5.453125 -0.78125 C 6.546875 -0.78125 7.441406 -1.144531 8.140625 -1.875 L 8.75 -1.265625 C 8.351562 -0.828125 7.867188 -0.492188 7.296875 -0.265625 C 6.722656 -0.0351562 6.097656 0.078125 5.421875 0.078125 Z M 5.421875 0.078125 "/></g></g></g><g fill="#000000" fill-opacity="1"><g transform="translate(348.041883, 64.326886)"><g><path d="M 7.890625 -0.828125 L 7.890625 0 L 1.484375 0 L 1.484375 -9.078125 L 7.703125 -9.078125 L 7.703125 -8.25 L 2.4375 -8.25 L 2.4375 -5.015625 L 7.140625 -5.015625 L 7.140625 -4.203125 L 2.4375 -4.203125 L 2.4375 -0.828125 Z M 7.890625 -0.828125 "/></g></g></g></svg>