<?xml version="1.0" encoding="utf-8"?>
<svg xmlns="http://www.w3.org/2000/svg" width="1881" height="669" viewBox="0 0 1881 669" fill="none">
<path d="M816.303 470.777H886.457V392.119L914.519 356.688L986.8 470.777H1070.7L965.966 310.06L1068.86 180.522H986.233L890.284 303.257H886.457V180.522H816.303V470.777Z" fill="white"/>
<path d="M1182.17 474.887C1250.62 474.887 1292.15 429.677 1292.15 362.64C1292.15 295.462 1250.62 250.251 1182.17 250.251C1113.72 250.251 1072.19 295.462 1072.19 362.64C1072.19 429.677 1113.72 474.887 1182.17 474.887ZM1182.59 422.59C1156.94 422.59 1142.77 398.213 1142.77 362.215C1142.77 326.075 1156.94 301.556 1182.59 301.556C1207.4 301.556 1221.57 326.075 1221.57 362.215C1221.57 398.213 1207.4 422.59 1182.59 422.59Z" fill="white"/>
<path d="M1396.96 346.625C1397.1 321.823 1411.55 307.083 1433.52 307.083C1455.49 307.083 1468.53 321.539 1468.39 345.633V470.777H1537.69V332.027C1537.83 282.99 1507.93 250.251 1462.15 250.251C1429.98 250.251 1405.6 266.55 1395.96 293.052H1393.55V253.086H1327.65V470.777H1396.96V346.625Z" fill="white"/>
<path d="M1783.97 253.086H1710.99L1670.74 403.032H1668.47L1628.36 253.086H1555.37L1629.92 470.777H1709.29L1783.97 253.086Z" fill="white"/>
<path d="M1810.55 470.777H1879.85V253.086H1810.55V470.777ZM1845.27 227.717C1864.97 227.717 1880.84 212.835 1880.84 194.553C1880.84 176.27 1864.97 161.53 1845.27 161.53C1825.71 161.53 1809.7 176.27 1809.7 194.553C1809.7 212.835 1825.71 227.717 1845.27 227.717Z" fill="white"/>
<path d="M251.988 154.887L392.981 0H481.447C540.361 0 572.57 0.000324451 572.57 0.000324451L556.567 18.1987C554.851 19.979 513.477 63.4976 432.257 148.853L321.197 265.661L457.996 466.441C549.226 599.766 594.794 668.407 594.794 669C594.794 669 564.765 669 504.707 669H414.621C330.158 536.268 266.478 437.065 223.675 371.293C188.117 408.185 161.425 436.175 143.598 455.264V669H0.12709V431.032L55.9903 369.612C61.5194 363.875 88.1164 334.896 135.686 282.673C183.16 230.352 221.959 187.822 251.988 154.887ZM0.12709 131.545V0H143.598V103.851L73.531 181.789C26.8194 234.902 0.12709 262.082 0.12709 262.082V248.289L0.127112 200.01C-0.158877 179.141 0.12709 156.964 0.12709 131.545Z" fill="white"/>
</svg>