<svg width="231" height="46" viewBox="0 0 231 46" fill="none" xmlns="http://www.w3.org/2000/svg">
<path d="M59.6608 30.9733C58.8029 30.9733 58.023 30.9733 57.1652 30.9733C57.1652 30.7433 57.1652 30.5899 57.1652 30.3599C57.1652 27.8299 57.1652 25.2233 57.1652 22.6933C57.1652 21.8499 57.0092 21.0066 56.6972 20.2399C56.3073 19.1666 55.4494 18.4766 54.2796 18.1699C51.2381 17.4033 48.8984 19.0899 48.8984 22.1566C48.8205 24.8399 48.8984 27.5999 48.8984 30.2833C48.8984 30.5133 48.8984 30.7433 48.8984 30.9733C48.0406 30.9733 47.2607 30.9733 46.4028 30.9733C46.4028 26.0666 46.4028 21.0833 46.4028 16.1766C47.1827 16.1766 48.0406 16.1766 48.8984 16.1766C48.8984 16.8666 48.8984 17.6333 48.8984 18.3999C52.3299 14.7966 56.2293 15.0266 59.1149 19.0133C59.2708 18.7833 59.4268 18.5533 59.5828 18.3999C61.0646 16.3299 63.7161 15.4866 66.2897 16.0999C68.7074 16.7133 70.3451 18.5533 70.4231 21.3133C70.5791 24.5333 70.4231 27.7533 70.4231 31.0499C69.6432 31.0499 68.7853 31.0499 68.0055 31.0499C68.0055 30.8199 68.0055 30.5899 68.0055 30.3599C68.0055 27.9066 68.0055 25.3766 68.0055 22.9233C68.0055 22.1566 67.9275 21.3899 67.6935 20.6233C67.3036 19.3199 66.3677 18.5533 65.0419 18.2466C62.1564 17.5566 59.8947 19.0899 59.7388 22.0033C59.5828 24.7633 59.6608 27.5999 59.6608 30.3599C59.6608 30.4366 59.6608 30.6666 59.6608 30.9733Z" fill="black"/>
<path d="M134.295 18.8601C134.295 16.1001 134.295 13.4934 134.295 10.8867C135.153 10.8867 135.933 10.8867 136.791 10.8867C136.791 17.5567 136.791 24.2267 136.791 30.8967C136.011 30.8967 135.153 30.8967 134.295 30.8967C134.295 29.9767 134.295 29.0567 134.295 28.0601C134.139 28.2134 134.139 28.2134 134.061 28.2901C131.8 31.9701 126.73 31.8934 124.079 29.5167C122.051 27.6767 121.349 25.3767 121.505 22.7701C121.583 20.6234 122.363 18.8601 124.001 17.4034C126.652 15.1034 130.942 15.1801 133.281 17.6334C133.593 18.0167 133.905 18.4001 134.295 18.8601ZM134.295 23.5367C134.217 23.0767 134.217 22.5401 134.139 22.0801C133.671 20.0867 132.424 18.6301 130.396 18.1701C128.29 17.7101 126.497 18.2467 125.171 19.9334C123.923 21.4667 123.845 23.2301 124.235 25.0701C124.703 27.0634 125.873 28.4434 127.9 28.9801C129.85 29.5167 131.488 28.9801 132.892 27.5234C133.905 26.3734 134.295 24.9934 134.295 23.5367Z" fill="black"/>
<path d="M183.116 18.8601C183.116 17.8634 183.116 17.0201 183.116 16.1001C183.973 16.1001 184.753 16.1001 185.611 16.1001C185.611 21.0067 185.611 25.9134 185.611 30.8967C184.831 30.8967 183.973 30.8967 183.116 30.8967C183.116 29.9767 183.116 29.0567 183.116 28.0601C182.96 28.2134 182.96 28.2901 182.882 28.2901C180.62 31.9701 175.551 31.8934 172.899 29.5167C170.872 27.6767 170.17 25.3767 170.326 22.7701C170.482 20.6234 171.183 18.8601 172.821 17.4034C175.473 15.1034 179.762 15.2567 182.102 17.6334C182.492 18.0167 182.726 18.4001 183.116 18.8601ZM172.899 23.4601C172.977 23.9967 172.977 24.5334 173.133 24.9934C173.679 27.0634 174.927 28.5201 177.111 28.9801C179.216 29.4401 180.932 28.6734 182.18 26.9867C183.116 25.7601 183.272 24.3034 183.116 22.8467C182.882 19.5501 179.84 17.3267 176.643 18.1701C174.303 18.7067 172.899 20.7767 172.899 23.4601Z" fill="black"/>
<path d="M153.48 18.9366C153.48 17.9399 153.48 17.0199 153.48 16.1766C154.338 16.1766 155.118 16.1766 155.976 16.1766C155.976 21.0832 155.976 26.0666 155.976 30.9732C155.196 30.9732 154.338 30.9732 153.48 30.9732C153.48 30.0532 153.48 29.2099 153.48 28.2899C153.402 28.2132 153.324 28.2132 153.246 28.1366C153.246 28.2132 153.246 28.2899 153.246 28.3666C150.984 32.0466 145.837 31.9699 143.186 29.5166C141.236 27.6766 140.534 25.4532 140.69 22.8466C140.768 20.7766 141.548 18.9366 143.186 17.4799C145.837 15.1799 150.126 15.2566 152.466 17.7099C152.778 18.0166 153.09 18.3999 153.48 18.9366ZM143.186 23.4599C143.264 23.9966 143.264 24.5332 143.42 24.9932C143.965 27.0632 145.213 28.5199 147.397 28.9799C149.503 29.4399 151.218 28.6732 152.466 26.9866C153.402 25.7599 153.558 24.3032 153.402 22.8466C153.168 19.5499 150.126 17.3266 146.929 18.1699C144.667 18.7066 143.186 20.7766 143.186 23.4599Z" fill="black"/>
<path d="M114.954 30.9735C114.954 30.0535 114.954 29.1335 114.954 28.2135C114.486 28.7502 114.096 29.2869 113.628 29.7469C111.445 31.6635 107.857 31.8169 105.361 30.0535C101.462 27.3702 101.072 21.0069 104.504 17.7102C107.155 15.2569 112.536 14.9502 114.798 18.7069C114.798 18.7835 114.876 18.7835 114.954 18.8602C114.954 17.9402 114.954 17.0202 114.954 16.1002C115.812 16.1002 116.592 16.1002 117.45 16.1002C117.45 21.0069 117.45 25.9902 117.45 30.8969C116.67 30.9735 115.89 30.9735 114.954 30.9735ZM115.032 23.5369C114.954 23.0769 114.954 22.6169 114.876 22.1569C114.408 20.0869 113.238 18.7069 111.133 18.1702C109.027 17.6335 107.233 18.2469 105.907 19.9335C104.66 21.4669 104.582 23.2302 104.972 25.0702C105.439 26.9869 106.609 28.4435 108.637 28.9802C110.587 29.5169 112.224 28.9802 113.628 27.6002C114.642 26.3735 115.032 24.9935 115.032 23.5369Z" fill="black"/>
<path d="M88.4383 26.6797C87.9704 27.9064 87.2685 28.8264 86.3326 29.6698C82.5112 32.8131 76.2722 31.2031 74.7125 26.5264C74.0106 24.5331 74.0106 22.5397 74.7125 20.5464C75.1804 19.0897 76.0382 17.9397 77.286 17.0964C81.1854 14.3364 87.1125 16.0231 88.5943 20.3164C89.0622 21.6197 89.1402 22.9231 88.9062 24.3797C84.9289 24.3797 80.9515 24.3797 76.8961 24.3797C76.7401 26.8331 78.6118 28.9797 81.0295 29.1331C82.9792 29.2864 84.6169 28.7497 85.7087 26.9097C85.7867 26.7564 85.9427 26.6797 86.0987 26.6797C86.8006 26.6797 87.5804 26.6797 88.4383 26.6797ZM86.3326 22.5397C86.3326 20.8531 85.7087 19.4731 84.227 18.6297C82.5112 17.6331 80.7955 17.6331 79.0798 18.5531C77.598 19.3964 76.9741 20.8531 76.8181 22.5397C80.0156 22.5397 83.1351 22.5397 86.3326 22.5397Z" fill="black"/>
<path d="M211.347 15.8701C215.871 15.8701 218.99 19.0135 218.99 23.5368C218.99 27.9835 215.715 31.2035 211.113 31.2035C206.668 31.2035 203.626 28.0601 203.626 23.5368C203.704 19.0135 206.824 15.8701 211.347 15.8701ZM206.278 23.5368C206.356 24.1501 206.434 24.8401 206.512 25.4535C207.058 27.7535 208.774 29.1334 211.035 29.2101C213.453 29.2101 215.481 27.7534 216.105 25.5301C216.416 24.3801 216.416 23.1535 216.183 22.0035C215.715 19.7035 213.843 18.0168 211.425 17.9401C208.93 17.8634 206.98 19.2434 206.434 21.6968C206.356 22.2334 206.356 22.9235 206.278 23.5368Z" fill="black"/>
<path d="M159.485 16.0999C160.109 16.0999 160.733 16.0999 161.357 16.0999C161.357 14.8733 161.357 13.6466 161.357 12.4199C162.215 12.4199 162.995 12.4199 163.931 12.4199C163.931 13.6466 163.931 14.7966 163.931 16.0999C165.256 16.0999 166.504 16.0999 167.83 16.0999C167.83 16.7899 167.83 17.4033 167.83 18.0933C166.582 18.0933 165.334 18.0933 163.931 18.0933C163.931 18.3233 163.931 18.5533 163.931 18.7066C163.931 21.5433 163.931 24.3033 163.931 27.1399C163.931 28.5966 164.321 28.9799 165.802 28.9799C166.426 28.9799 167.128 28.9799 167.83 28.9799C167.83 29.6699 167.83 30.2833 167.83 30.9732C166.27 30.8966 164.711 31.2032 163.229 30.5899C161.981 30.0532 161.435 28.9032 161.435 27.6766C161.357 25.2999 161.435 22.9233 161.435 20.5466C161.435 19.8566 161.435 19.2433 161.435 18.5533C161.435 18.2466 161.279 18.0933 160.967 18.0933C160.499 18.0933 160.031 18.0933 159.485 18.0933C159.485 17.4033 159.485 16.7899 159.485 16.0999Z" fill="black"/>
<path d="M91.4019 18.0933C91.4019 17.4033 91.4019 16.7899 91.4019 16.0999C92.0258 16.0999 92.6497 16.0999 93.3516 16.0999C93.3516 14.8733 93.3516 13.6466 93.3516 12.4199C94.2094 12.4199 94.9893 12.4199 95.9251 12.4199C95.9251 13.6466 95.9251 14.7966 95.9251 16.0999C97.2509 16.0999 98.4987 16.0999 99.8245 16.0999C99.8245 16.7899 99.8245 17.4033 99.8245 18.0933C98.5767 18.0933 97.3289 18.0933 95.9251 18.0933C95.9251 18.3233 95.9251 18.5533 95.9251 18.7066C95.9251 21.5433 95.9251 24.3033 95.9251 27.1399C95.9251 28.5966 96.3151 28.9799 97.7969 28.9799C98.4987 28.9799 99.1226 28.9799 99.8245 28.9799C99.8245 29.6699 99.8245 30.2833 99.8245 31.0499C98.2648 30.9733 96.627 31.2799 95.1453 30.5899C93.8975 29.9766 93.4295 28.9033 93.4295 27.5999C93.3516 24.6866 93.4295 21.7733 93.4295 18.8599C93.4295 18.0933 93.4295 18.0933 92.6497 18.0933C92.1817 18.0933 91.8698 18.0933 91.4019 18.0933Z" fill="black"/>
<path d="M17.625 36.4933C14.9734 36.4933 12.3219 36.4933 9.59229 36.4933C9.59229 33.8867 9.59229 31.3567 9.59229 28.75C12.2439 28.75 14.8955 28.75 17.625 28.75C17.625 31.28 17.625 33.8867 17.625 36.4933Z" fill="black"/>
<path d="M27.7637 36.4933C25.1121 36.4933 22.4605 36.4933 19.731 36.4933C19.731 33.8867 19.731 31.3567 19.731 28.75C22.3825 28.75 25.0341 28.75 27.7637 28.75C27.7637 31.28 27.7637 33.8867 27.7637 36.4933Z" fill="black"/>
<path d="M38.1363 26.8332C35.4847 26.8332 32.8331 26.8332 30.1035 26.8332C30.1035 24.2265 30.1035 21.6965 30.1035 19.0898C32.7551 19.0898 35.4067 19.0898 38.1363 19.0898C38.1363 21.6198 38.1363 24.2265 38.1363 26.8332Z" fill="black"/>
<path d="M27.8418 26.8332C25.1902 26.8332 22.5387 26.8332 19.8091 26.8332C19.8091 24.2265 19.8091 21.6965 19.8091 19.0898C22.4607 19.0898 25.1123 19.0898 27.8418 19.0898C27.8418 21.6965 27.8418 24.2265 27.8418 26.8332Z" fill="black"/>
<path d="M29.9473 36.4933C29.9473 33.8867 29.9473 31.3567 29.9473 28.75C32.5989 28.75 35.2504 28.75 37.98 28.75C37.98 31.3567 37.98 33.8867 37.98 36.4933C35.3284 36.4933 32.6768 36.4933 29.9473 36.4933Z" fill="black"/>
<path d="M19.8091 16.8669C19.8091 14.2602 19.8091 11.7302 19.8091 9.12354C22.4607 9.12354 25.1123 9.12354 27.8418 9.12354C27.8418 11.7302 27.8418 14.2602 27.8418 16.8669C25.1902 16.8669 22.5387 16.8669 19.8091 16.8669Z" fill="black"/>
<path d="M9.67041 9.04639C12.322 9.04639 14.9736 9.04639 17.6252 9.04639C17.6252 11.6531 17.6252 14.1831 17.6252 16.7897C14.9736 16.7897 12.322 16.7897 9.67041 16.7897C9.67041 14.2597 9.67041 11.7297 9.67041 9.04639Z" fill="black"/>
<path d="M9.67041 26.6799C9.67041 24.0732 9.67041 21.5432 9.67041 18.9365C12.322 18.9365 14.9736 18.9365 17.7032 18.9365C17.7032 21.5432 17.7032 24.0732 17.7032 26.6799C14.9736 26.6799 12.322 26.6799 9.67041 26.6799Z" fill="black"/>
<path d="M38.604 16.4066C35.9524 15.7166 33.4568 15.0266 30.8052 14.2599C31.5071 11.7299 32.209 9.27658 32.9108 6.74658C35.5624 7.43658 38.136 8.12658 40.7096 8.89325C40.0077 11.3466 39.3059 13.8766 38.604 16.4066Z" fill="black"/>
<path d="M199.882 30.9734C199.025 30.9734 198.245 30.9734 197.465 30.9734C197.465 25.9901 197.465 21.0834 197.465 16.1001C197.855 16.1001 198.245 16.1001 198.635 16.1001C199.025 16.1001 199.414 16.1001 199.882 16.1001C199.882 21.0068 199.882 25.9901 199.882 30.9734Z" fill="black"/>
<path d="M198.713 13.7234C197.777 13.7234 196.997 12.9568 196.997 12.0368C196.997 11.1168 197.777 10.3501 198.635 10.3501C199.571 10.3501 200.351 11.0401 200.351 12.0368C200.429 12.8801 199.649 13.6468 198.713 13.7234Z" fill="black"/>
<path d="M191.57 30.9741C192.474 30.9598 193.195 30.2275 193.181 29.3384C193.166 28.4493 192.421 27.7401 191.517 27.7544C190.613 27.7687 189.891 28.501 189.906 29.3901C189.92 30.2792 190.665 30.9884 191.57 30.9741Z" fill="black"/>
</svg>
