<svg width="107" height="24" viewBox="0 0 107 24" fill="none" xmlns="http://www.w3.org/2000/svg">
<path d="M99.1348 5.53684V5.56268C98.0665 4.79001 96.8094 4.33111 95.5014 4.23627C94.1934 4.14143 92.885 4.41431 91.7195 5.02501C90.554 5.63571 89.5765 6.56066 88.894 7.69846C88.2116 8.83626 87.8506 10.143 87.8506 11.4755C87.8506 12.8079 88.2116 14.1147 88.894 15.2525C89.5765 16.3903 90.554 17.3152 91.7195 17.9259C92.885 18.5366 94.1934 18.8095 95.5014 18.7147C96.8094 18.6198 98.0665 18.1609 99.1348 17.3883V18.7318H102.138V3.3252L99.1348 5.53684ZM94.9978 15.6882C94.1848 15.6895 93.3893 15.4479 92.7103 14.9935C92.0313 14.5391 91.4988 13.8919 91.1788 13.1324C90.8589 12.373 90.7657 11.5347 90.9109 10.7218C91.056 9.90894 91.4331 9.15736 91.9953 8.56052C92.5574 7.96367 93.2798 7.54789 94.0727 7.36488C94.8655 7.18186 95.6938 7.23968 96.4545 7.53115C97.2153 7.82262 97.8749 8.33488 98.3515 9.00424C98.828 9.67359 99.1004 10.4705 99.1348 11.2959V11.6447C99.0941 12.7321 98.6404 13.7611 97.8691 14.516C97.0978 15.2709 96.0687 15.6928 94.9978 15.6934V15.6882Z" fill="#0068E5"/>
<path d="M87.0242 18.737V14.3499L81.0742 18.737H87.0242Z" fill="#0068E5"/>
<path d="M106.666 0L103.653 2.21682V5.28367L106.664 3.0591L106.666 0Z" fill="#0068E5"/>
<path d="M103.654 7.19301L103.648 18.737H106.651L106.664 4.96844L103.654 7.19301Z" fill="#0068E5"/>
<path d="M38.779 4.22693C37.3668 4.22744 35.9866 4.65344 34.8127 5.45106C33.6388 6.24867 32.7241 7.38209 32.1841 8.70797C31.6442 10.0339 31.5033 11.4926 31.7793 12.8999C32.0553 14.3071 32.7357 15.5996 33.7346 16.6139C34.7335 17.6281 36.006 18.3187 37.3911 18.5981C38.7762 18.8775 40.2118 18.7333 41.5162 18.1837C42.8207 17.6342 43.9355 16.7039 44.7196 15.5105C45.5037 14.3171 45.922 12.9143 45.9215 11.4794C45.9211 10.5266 45.7361 9.58328 45.377 8.70319C45.0179 7.8231 44.4917 7.02351 43.8284 6.35005C43.1652 5.6766 42.3779 5.14248 41.5115 4.7782C40.6451 4.41391 39.7166 4.22659 38.779 4.22693ZM38.779 15.6934C37.9588 15.6934 37.157 15.4462 36.475 14.9832C35.793 14.5202 35.2614 13.862 34.9475 13.092C34.6336 12.322 34.5515 11.4747 34.7115 10.6573C34.8715 9.83983 35.2665 9.08896 35.8465 8.49962C36.4265 7.91028 37.1655 7.50893 37.9699 7.34633C38.7744 7.18373 39.6082 7.26719 40.366 7.58613C41.1238 7.90508 41.7715 8.44521 42.2272 9.1382C42.6829 9.83119 42.9262 10.6459 42.9262 11.4794C42.9265 12.0329 42.8194 12.581 42.6112 13.0924C42.4029 13.6038 42.0974 14.0685 41.7122 14.4599C41.3271 14.8513 40.8697 15.1617 40.3664 15.3733C39.8631 15.585 39.3237 15.6937 38.779 15.6934Z" fill="#00204E"/>
<path d="M22.9832 4.22694C21.7402 4.22652 20.5186 4.55583 19.4393 5.18229C18.36 5.80876 17.4603 6.71068 16.8293 7.79884C16.1983 8.88701 15.8578 10.1237 15.8414 11.3866C15.8251 12.6495 16.1335 13.8949 16.7362 14.9996C17.3388 16.1042 18.2149 17.0298 19.2776 17.6849C20.3403 18.34 21.553 18.7018 22.7955 18.7346C24.0381 18.7673 25.2676 18.4699 26.3623 17.8717C27.457 17.2736 28.3791 16.3953 29.0374 15.3239L26.4438 13.8047C26.0241 14.4475 25.4387 14.9607 24.7515 15.2883C24.0643 15.6159 23.3016 15.7453 22.5469 15.6624C21.7922 15.5795 21.0745 15.2874 20.472 14.8181C19.8696 14.3488 19.4057 13.7202 19.131 13.0012H26.8557H29.9756C30.2007 11.9429 30.1898 10.8467 29.9436 9.79326C29.6973 8.73979 29.2221 7.75571 28.5527 6.91323C27.8833 6.07076 27.0368 5.39128 26.0752 4.92465C25.1137 4.45802 24.0615 4.21609 22.9959 4.21661L22.9832 4.22694ZM22.9832 7.26796C23.8191 7.26862 24.6352 7.52607 25.3245 8.00653C26.0138 8.48699 26.544 9.16801 26.8455 9.96018H19.131C19.1717 9.84994 19.2174 9.74142 19.2683 9.63463C19.6075 8.92646 20.1355 8.32924 20.7923 7.91086C21.449 7.49248 22.2081 7.26974 22.9832 7.26796Z" fill="#00204E"/>
<path d="M7.20095 4.22694C5.69841 4.22464 4.2339 4.70681 3.0182 5.60405L1.87143 4.72559C1.76468 4.64539 1.6355 4.60194 1.50274 4.60158H0.0152556L0 24H3.00294V17.3676C3.91467 18.0405 4.97019 18.4845 6.08317 18.6634C7.19616 18.8423 8.33501 18.751 9.4066 18.3969C10.4782 18.0428 11.4521 17.4361 12.2487 16.6262C13.0453 15.8164 13.6419 14.8265 13.9898 13.7374C14.3377 12.6484 14.427 11.4911 14.2504 10.3603C14.0738 9.22946 13.6362 8.15716 12.9736 7.23107C12.311 6.30499 11.442 5.55142 10.4378 5.03198C9.43362 4.51254 8.32269 4.24198 7.19587 4.24244L7.20095 4.22694ZM7.20095 15.6934C6.38051 15.6939 5.57835 15.4471 4.89596 14.9843C4.21357 14.5214 3.68163 13.8633 3.36742 13.0932C3.05322 12.3231 2.97088 11.4756 3.13082 10.6579C3.29075 9.84023 3.68578 9.08913 4.26593 8.49963C4.84607 7.91014 5.58526 7.50873 6.38996 7.34621C7.19467 7.1837 8.02874 7.26737 8.78664 7.58664C9.54453 7.90591 10.1922 8.44643 10.6477 9.13982C11.1032 9.8332 11.3461 10.6483 11.3456 11.482C11.3456 12.035 11.2384 12.5827 11.0301 13.0936C10.8218 13.6046 10.5165 14.0688 10.1316 14.4599C9.74678 14.851 9.28988 15.1612 8.78703 15.3728C8.28418 15.5845 7.74523 15.6934 7.20095 15.6934Z" fill="#00204E"/>
<path d="M54.5991 4.22693C53.1078 4.22576 51.654 4.7022 50.4444 5.58855L49.3078 4.71783C49.2012 4.6373 49.0719 4.59382 48.9391 4.59382H47.444L47.4287 23.9922H50.4342V17.3831C51.3482 18.05 52.4045 18.4878 53.5167 18.661C54.6289 18.8342 55.7657 18.7379 56.8343 18.3798C57.903 18.0217 58.8732 17.412 59.6658 16.6005C60.4585 15.789 61.0512 14.7986 61.3956 13.7101C61.74 12.6216 61.8263 11.4658 61.6475 10.337C61.4687 9.20813 61.0299 8.13821 60.3668 7.21445C59.7037 6.29069 58.8352 5.53926 57.832 5.02142C56.8287 4.50359 55.7193 4.23401 54.5941 4.23468L54.5991 4.22693ZM54.5991 15.6934C53.7787 15.6939 52.9765 15.4471 52.2942 14.9843C51.6118 14.5214 51.0798 13.8633 50.7656 13.0932C50.4514 12.3231 50.3691 11.4756 50.529 10.6579C50.689 9.84022 51.084 9.08912 51.6641 8.49962C52.2443 7.91013 52.9835 7.50872 53.7882 7.34621C54.5929 7.18369 55.4269 7.26736 56.1848 7.58663C56.9427 7.9059 57.5904 8.44642 58.0459 9.13981C58.5014 9.8332 58.7443 10.6483 58.7438 11.482C58.7438 12.035 58.6366 12.5827 58.4283 13.0936C58.22 13.6046 57.9147 14.0688 57.5298 14.4599C57.145 14.851 56.6881 15.1612 56.1852 15.3728C55.6824 15.5845 55.1434 15.6934 54.5991 15.6934Z" fill="#00204E"/>
<path d="M81.8981 13.0064C82.2781 11.2417 81.9981 9.39647 81.1128 7.82998C80.2275 6.26348 78.8002 5.08782 77.1087 4.53186C75.4172 3.97591 73.5827 4.07944 71.9622 4.82232C70.3417 5.56521 69.0513 6.89427 68.3422 8.55075C67.633 10.2072 67.5559 12.0726 68.1259 13.7837C68.6958 15.4947 69.872 16.9291 71.4254 17.8074C72.9789 18.6858 74.7985 18.9452 76.5298 18.5354C78.2612 18.1255 79.7806 17.0756 80.7921 15.5901L78.3689 13.8047C77.9496 14.4476 77.3644 14.961 76.6773 15.2887C75.9902 15.6164 75.2277 15.7459 74.4731 15.6629C73.7185 15.58 73.0009 15.2878 72.3987 14.8184C71.7965 14.3489 71.3329 13.7203 71.0586 13.0012H78.7833L81.8981 13.0064ZM74.9184 7.26796C75.7543 7.26861 76.5704 7.52606 77.2597 8.00653C77.949 8.48699 78.4792 9.168 78.7808 9.96017H71.0586C71.0992 9.84994 71.145 9.74142 71.1959 9.63462C71.5357 8.92528 72.0649 8.32727 72.7231 7.90881C73.3813 7.49035 74.142 7.26829 74.9184 7.26796Z" fill="#00204E"/>
<path d="M66.2633 0H63.2578V18.737H66.2633V0Z" fill="#00204E"/>
</svg>
