<svg width="169" height="32" viewBox="0 0 169 32" fill="none" xmlns="http://www.w3.org/2000/svg">
<path d="M49.9675 2.04579V19.6863C49.9675 21.9343 50.3927 23.6201 51.2428 24.7441C52.1206 25.8681 53.5879 26.43 55.6449 26.43C57.7019 26.43 59.1556 25.8681 60.0059 24.7441C60.8836 23.6201 61.3224 21.9342 61.3224 19.6863V2.04579H66.6706V18.9873C66.6706 21.0982 66.4649 22.9211 66.0535 24.4563C65.6695 25.9915 65.0387 27.2662 64.161 28.2805C63.2833 29.2947 62.1314 30.0486 60.7052 30.542C59.3063 31.0081 57.6059 31.2411 55.6037 31.2411C53.5741 31.2411 51.86 31.0081 50.4612 30.542C49.0898 30.0486 47.9653 29.2947 47.0876 28.2805C46.2099 27.2662 45.5791 25.9915 45.1952 24.4563C44.8112 22.9211 44.6191 21.0982 44.6191 18.9873V2.04579H49.9675ZM72.9006 30.7477V9.28294H78.1667V12.8604H78.3723C78.8109 11.709 79.4963 10.7495 80.4293 9.98198C81.3888 9.18696 82.7053 8.78949 84.3788 8.78949C86.6004 8.78949 88.3004 9.51593 89.4803 10.9689C90.6594 12.4218 91.2493 14.4915 91.2493 17.178V30.7477H85.9833V17.7126C85.9833 16.1774 85.7086 15.026 85.1605 14.2584C84.6117 13.4908 83.7067 13.107 82.4453 13.107C81.8965 13.107 81.3617 13.1893 80.8408 13.3538C80.3471 13.4908 79.8946 13.7101 79.4832 14.0117C79.099 14.2858 78.7837 14.6422 78.537 15.0807C78.2901 15.492 78.1667 15.9854 78.1667 16.5611V30.7476H72.9006V30.7477ZM99.7197 6.1578C98.6228 6.1578 97.8271 5.91108 97.3335 5.41764C96.867 4.9242 96.6341 4.29367 96.6341 3.52612V2.70371C96.6341 1.93616 96.867 1.30563 97.3335 0.812184C97.8271 0.318742 98.6228 0.0720215 99.7197 0.0720215C100.789 0.0720215 101.571 0.318742 102.065 0.812184C102.558 1.30563 102.805 1.93616 102.805 2.70371V3.52612C102.805 4.29367 102.558 4.9242 102.065 5.41764C101.571 5.91108 100.789 6.1578 99.7197 6.1578ZM97.0867 9.28294H102.353V30.7477H97.0867V9.28294ZM115.162 30.7477C113.352 30.7477 111.967 30.2816 111.007 29.3496C110.075 28.3901 109.608 27.0331 109.608 25.2786V13.4772H106.44V9.28294H108.086C108.882 9.28294 109.417 9.10472 109.69 8.74837C109.992 8.36456 110.143 7.80261 110.143 7.06245V3.40275H114.874V9.28294H119.276V13.4772H114.874V26.5534H118.947V30.7477H115.162ZM143.263 30.7477H123.351V25.731L132.36 17.8359C133.896 16.4927 135.021 15.2865 135.734 14.2174C136.446 13.1208 136.803 11.942 136.803 10.681V10.1465C136.803 8.88547 136.392 7.92597 135.569 7.26805C134.746 6.58274 133.745 6.24005 132.566 6.24005C131.085 6.24005 129.96 6.66498 129.193 7.51477C128.424 8.33717 127.876 9.33779 127.547 10.5165L122.857 8.70725C123.158 7.74776 123.583 6.84312 124.132 5.99332C124.68 5.11607 125.366 4.34852 126.189 3.6906C127.039 3.03275 128.027 2.51184 129.151 2.12803C130.275 1.74422 131.565 1.55235 133.019 1.55235C134.527 1.55235 135.87 1.77168 137.05 2.21027C138.229 2.62147 139.217 3.21089 140.013 3.97844C140.835 4.74607 141.452 5.65063 141.864 6.69237C142.302 7.7341 142.522 8.87174 142.522 10.1053C142.522 11.3116 142.33 12.4081 141.946 13.395C141.562 14.3818 141.041 15.3276 140.383 16.2322C139.724 17.1095 138.956 17.9593 138.079 18.7816C137.201 19.5766 136.269 20.3854 135.281 21.2078L129.234 26.1833H143.262V30.7477H143.263ZM149.212 30.7477V26.3478H157.111V5.9522H156.74L150.487 13.3538L147.113 10.5165L154.231 2.04579H162.418V26.3478H169V30.7477H149.212Z" fill="#212529"/>
<path d="M23.5508 10.7154L20.5273 9.56914L24.0282 2.11871H27.5291L23.5508 10.7154Z" fill="#FF6258"/>
<path d="M34.2129 10.8586L31.1895 9.71245L34.6904 2.26202H38.1912L34.2129 10.8586Z" fill="#FF6258"/>
<path d="M23.5508 10.7154L20.5273 9.56914L24.0282 2.11871H27.5291L23.5508 10.7154Z" fill="#FF6258"/>
<path d="M34.2129 10.8586L31.1895 9.71245L34.6904 2.26202H38.1912L34.2129 10.8586Z" fill="#FF6258"/>
<path d="M14.6403 22.6074L17.6638 23.7536L14.1629 31.204H10.6621L14.6403 22.6074Z" fill="#FF6258"/>
<path d="M3.97821 22.4641L7.00165 23.6103L3.50083 31.0607H0L3.97821 22.4641Z" fill="#FF6258"/>
<path d="M14.6403 22.6074L17.6638 23.7536L14.1629 31.204H10.6621L14.6403 22.6074Z" fill="#FF6258"/>
<path d="M3.97821 22.4641L7.00165 23.6103L3.50083 31.0607H0L3.97821 22.4641Z" fill="#FF6258"/>
<path d="M28.3249 23.6104L25.4606 22.4642L21.4824 31.0609H24.9832L28.3249 23.6104Z" fill="#FF6258"/>
<path d="M33.2585 12.8645L30.2351 11.7183L26.416 20.3149L29.2803 21.3179L33.2585 12.8645Z" fill="#FF6258"/>
<path d="M8.75268 11.5751L4.93359 20.315L7.79791 21.3179L11.7761 12.7213L8.75268 11.5751Z" fill="#FF6258"/>
<path d="M28.3249 23.6104L25.4606 22.4642L21.4824 31.0609H24.9832L28.3249 23.6104Z" fill="#FF6258"/>
<path d="M33.2585 12.8645L30.2351 11.7183L26.416 20.3149L29.2803 21.3179L33.2585 12.8645Z" fill="#FF6258"/>
<path d="M8.75268 11.5751L4.93359 20.315L7.79791 21.3179L11.7761 12.7213L8.75268 11.5751Z" fill="#FF6258"/>
<path d="M14.0028 7.99315C14.0028 8.86358 13.2191 9.56922 12.2524 9.56922C11.2856 9.56922 10.502 8.86358 10.502 7.99315C10.502 7.12272 11.2856 6.41708 12.2524 6.41708C13.2191 6.41708 14.0028 7.12272 14.0028 7.99315Z" fill="#FF6258"/>
<path d="M14.0028 7.99315C14.0028 8.86358 13.2191 9.56922 12.2524 9.56922C11.2856 9.56922 10.502 8.86358 10.502 7.99315C10.502 7.12272 11.2856 6.41708 12.2524 6.41708C13.2191 6.41708 14.0028 7.12272 14.0028 7.99315Z" fill="#FF6258"/>
<path d="M15.9128 3.69478C15.9128 4.56521 15.1292 5.27084 14.1624 5.27084C13.1957 5.27084 12.4121 4.56521 12.4121 3.69478C12.4121 2.82435 13.1957 2.11871 14.1624 2.11871C15.1292 2.11871 15.9128 2.82435 15.9128 3.69478Z" fill="#FF6258"/>
<path d="M15.9128 3.69478C15.9128 4.56521 15.1292 5.27084 14.1624 5.27084C13.1957 5.27084 12.4121 4.56521 12.4121 3.69478C12.4121 2.82435 13.1957 2.11871 14.1624 2.11871C15.1292 2.11871 15.9128 2.82435 15.9128 3.69478Z" fill="#FF6258"/>
<path d="M21.0047 16.5897C21.0047 17.4601 20.221 18.1658 19.2543 18.1658C18.2876 18.1658 17.5039 17.46 17.5039 16.5897C17.5039 15.7193 18.2876 15.0137 19.2543 15.0137C20.221 15.0138 21.0047 15.7193 21.0047 16.5897Z" fill="#FF6258"/>
<path d="M21.0047 16.5897C21.0047 17.4601 20.221 18.1658 19.2543 18.1658C18.2876 18.1658 17.5039 17.46 17.5039 16.5897C17.5039 15.7193 18.2876 15.0137 19.2543 15.0137C20.221 15.0138 21.0047 15.7193 21.0047 16.5897Z" fill="#FF6258"/>
</svg>
