<svg xmlns="http://www.w3.org/2000/svg" xmlns:xlink="http://www.w3.org/1999/xlink" width="93.156" height="41.061" viewBox="0 0 93.156 41.061"><defs><clipPath id="a"><path d="M51.52,127.6h93.156v41.061H51.52Zm0,0" transform="translate(0 0)"/></clipPath></defs><g transform="translate(-51.52 -127.602)" clip-path="url(#a)"><path d="M84.176,130.028H88.3v4.125H84.18v-4.125Zm0,7.969H88.3v20.617H84.18V138Zm6.8,10.309c-.007-.331,0-.662.029-.993s.07-.658.127-.984.134-.65.223-.968a9.753,9.753,0,0,1,.317-.942q.18-.461.408-.9a9.82,9.82,0,0,1,.493-.862c.179-.278.37-.548.576-.809s.422-.509.652-.747.47-.466.723-.682a9.6,9.6,0,0,1,.786-.605q.407-.285.841-.527c.29-.162.585-.309.889-.441s.614-.25.929-.353.634-.188.957-.259.651-.126.98-.164.659-.06.989-.067h.5v3.807c-.213,0-.424.011-.635.032s-.421.052-.63.094a6.14,6.14,0,0,0-.618.155c-.2.061-.4.132-.6.214s-.388.172-.575.273-.37.21-.547.327-.346.245-.511.38-.321.277-.472.428a6.2,6.2,0,0,0-.426.472q-.2.247-.38.511t-.327.547c-.1.187-.19.38-.271.576s-.152.4-.214.6a6.224,6.224,0,0,0-.155.618c-.041.209-.072.42-.094.631a6.315,6.315,0,0,0-.031.636v10.319H90.971Zm27.622,8.109a10.457,10.457,0,0,1-.95.65,10.418,10.418,0,0,1-2.089.964,10.571,10.571,0,0,1-1.112.3,10.2,10.2,0,0,1-1.137.174,10.241,10.241,0,0,1-2.3-.036,9.925,9.925,0,0,1-1.132-.21,10.246,10.246,0,0,1-1.1-.334,10.125,10.125,0,0,1-1.057-.457,10.284,10.284,0,0,1-1-.571,10.746,10.746,0,0,1-.93-.679,10.394,10.394,0,0,1-.847-.779,10.263,10.263,0,0,1-1.411-1.818,10.27,10.27,0,0,1-.545-1.014,9.984,9.984,0,0,1-.428-1.071,10.23,10.23,0,0,1-.488-2.248,10.355,10.355,0,0,1,.024-2.3,10.539,10.539,0,0,1,.2-1.133,10.43,10.43,0,0,1,.779-2.165,10.411,10.411,0,0,1,1.24-1.938,10.177,10.177,0,0,1,1.639-1.615,10.312,10.312,0,0,1,4.13-1.958,10.524,10.524,0,0,1,1.136-.187,10.671,10.671,0,0,1,1.151-.059,10.344,10.344,0,0,1,1.149.071,10.293,10.293,0,0,1,3.3.966,10,10,0,0,1,1.006.56,10.288,10.288,0,0,1,.937.67,10.18,10.18,0,0,1,.857.77,10.39,10.39,0,0,1,.766.861,10.312,10.312,0,0,1,2.171,5.26,10.312,10.312,0,0,1-.028,2.546v8.723c.007.331,0,.663-.029.993s-.068.658-.127.984-.132.65-.223.968a10.2,10.2,0,0,1-.723,1.846q-.227.443-.493.862t-.576.809c-.206.259-.422.509-.652.747s-.47.466-.722.682-.515.417-.786.605-.552.365-.841.527-.585.309-.889.442-.612.25-.928.352-.634.188-.957.261-.65.126-.978.164-.659.06-.99.067h-1a10.055,10.055,0,0,1-1.625-.163,9.908,9.908,0,0,1-1.58-.424,10.123,10.123,0,0,1-4.051-2.687,10.194,10.194,0,0,1-1.005-1.291,10.156,10.156,0,0,1-1.326-2.978h4.216a6.487,6.487,0,0,0,.545.949,6.616,6.616,0,0,0,.7.845,6.5,6.5,0,0,0,.83.715,6.429,6.429,0,0,0,.938.565,6.515,6.515,0,0,0,2.092.62,6.5,6.5,0,0,0,1.093.039,6.581,6.581,0,0,0,1.085-.147,6.476,6.476,0,0,0,4.261-3.186,6.364,6.364,0,0,0,.448-1,6.516,6.516,0,0,0,.366-2.153v-1.953Zm0-7.426v-.944h.041c-.005-.134-.013-.269-.027-.4s-.029-.267-.051-.4-.047-.266-.076-.4-.064-.261-.1-.39-.08-.257-.126-.384-.1-.251-.151-.374-.112-.245-.174-.364-.128-.237-.2-.352-.142-.229-.219-.339-.156-.218-.241-.323-.17-.209-.261-.309-.183-.2-.279-.29-.2-.184-.3-.273-.206-.172-.314-.253-.218-.158-.33-.233-.227-.143-.344-.21-.237-.13-.357-.188-.243-.114-.368-.164-.251-.1-.378-.142-.257-.082-.386-.116-.261-.065-.393-.092-.265-.048-.4-.067-.267-.031-.4-.04-.267-.015-.4-.016-.269,0-.4.011-.267.02-.4.036-.266.037-.4.061-.263.055-.394.088-.259.071-.388.112-.254.087-.38.136-.247.1-.369.16-.242.119-.36.184-.233.134-.346.206-.225.148-.333.229-.214.163-.318.249-.2.176-.3.269-.191.19-.282.287-.18.2-.265.306-.166.211-.245.321-.152.222-.223.335-.138.231-.2.35-.123.239-.179.362-.107.246-.155.373-.091.253-.131.381-.075.258-.106.389-.059.263-.082.4-.041.266-.056.4-.024.269-.031.4-.007.269,0,.4.009.269.021.4.027.267.047.4.044.265.072.4.06.262.1.392.078.257.122.384.094.253.147.377.11.245.17.365.126.238.194.354.14.23.215.341.155.221.237.327.168.21.258.31.18.2.277.294.192.187.294.275.2.175.311.257.217.16.327.237.226.146.342.214.234.132.354.192.242.116.366.168.25.1.377.146.255.084.384.12.261.068.393.1.263.052.4.071.266.035.4.045.269.017.4.02.269,0,.4-.007.269-.016.4-.032.267-.033.4-.057.263-.051.394-.082.261-.068.389-.108.255-.084.381-.132.25-.1.372-.156.242-.116.361-.18.235-.131.349-.2.226-.146.335-.225.215-.16.319-.245.206-.174.3-.266.194-.187.287-.285.18-.2.267-.3.168-.21.247-.318.155-.221.227-.334.14-.229.2-.348.126-.238.183-.36.11-.246.159-.37.094-.253.135-.381.078-.258.111-.388.061-.262.086-.394.044-.266.06-.4ZM67.265,154.52l11.427-26.9h4.317l-13.168,31H64.688l-13.168-31h4.317l11.428,26.9Zm67.111,3.338a9.225,9.225,0,0,0,.942-.045q.471-.046.934-.138t.916-.23a9.258,9.258,0,0,0,.889-.318c.291-.12.575-.254.853-.4s.548-.311.81-.485.515-.364.758-.563.477-.412.7-.635.433-.456.634-.7a9.419,9.419,0,0,0,.563-.758q.263-.393.485-.81t.4-.854c.12-.291.227-.587.318-.889s.168-.607.23-.916.107-.622.139-.934.045-.628.045-.944-.015-.63-.045-.944-.078-.626-.139-.934-.138-.615-.229-.916-.2-.6-.318-.89-.255-.575-.4-.853-.31-.549-.485-.811a9.4,9.4,0,0,0-.561-.758c-.2-.245-.412-.477-.634-.7s-.456-.434-.7-.634-.5-.388-.759-.563a9.324,9.324,0,0,0-.809-.487q-.417-.223-.853-.4c-.291-.12-.588-.227-.889-.318s-.607-.168-.916-.23-.62-.107-.934-.138a9.226,9.226,0,0,0-.942-.047c-.314,0-.63.015-.942.045s-.624.078-.933.139a9.354,9.354,0,0,0-.916.23,9.142,9.142,0,0,0-.889.318c-.291.12-.575.255-.853.4s-.548.31-.81.485a9.43,9.43,0,0,0-.758.563c-.243.2-.476.412-.7.634s-.434.457-.634.7a9.419,9.419,0,0,0-.563.758q-.263.393-.485.81c-.148.278-.282.563-.4.854s-.226.588-.317.889-.168.608-.23.917-.107.62-.139.934-.045.628-.045.944.015.63.045.942.078.626.139.934a9.353,9.353,0,0,0,.23.916q.136.453.317.89c.122.29.255.575.4.853s.31.548.485.81.362.515.561.759.412.476.634.7.456.434.7.634a9.421,9.421,0,0,0,.758.563q.393.263.809.485a9.364,9.364,0,0,0,.853.4,9.132,9.132,0,0,0,.889.318,9.329,9.329,0,0,0,.914.23q.463.092.933.139T134.376,157.858Zm0,.688q-.505,0-1.01-.049t-1-.148c-.331-.065-.658-.148-.981-.246a10.318,10.318,0,0,1-3.546-1.9q-.391-.321-.75-.679c-.238-.239-.465-.488-.679-.75s-.414-.532-.6-.813-.36-.569-.52-.867-.3-.6-.432-.914a10.1,10.1,0,0,1-.341-.953c-.1-.323-.18-.651-.246-.981s-.115-.666-.148-1-.049-.674-.049-1.01.016-.675.049-1.01.083-.67.148-1,.148-.659.246-.981a10.358,10.358,0,0,1,.773-1.867q.239-.447.52-.869c.187-.281.388-.551.6-.813s.441-.511.679-.749.489-.466.75-.68.532-.414.813-.6.569-.361.866-.52.6-.3.914-.433.63-.242.953-.341.65-.179.98-.246.664-.115,1-.148.672-.049,1.009-.049.674.017,1.01.049.668.083,1,.148.658.148.981.246.64.213.952.341.616.274.914.433.587.333.867.52.551.389.811.6.511.441.75.679.464.489.679.75.414.532.6.813.361.571.52.867.3.6.433.916.242.63.339.952a9.951,9.951,0,0,1,.246.982c.065.331.115.664.148,1s.049.672.049,1.01-.016.674-.049,1.01a10.075,10.075,0,0,1-.148,1q-.1.5-.245.982c-.1.322-.213.64-.341.952s-.274.618-.433.916-.331.587-.519.867-.389.552-.6.813-.44.511-.679.75-.488.465-.749.679-.532.416-.813.6-.569.361-.866.52-.6.3-.914.433a9.943,9.943,0,0,1-.952.341c-.322.1-.65.18-.98.246s-.664.115-1,.148S134.714,158.546,134.376,158.546Zm0-4.674a5.429,5.429,0,0,0,.552-.027,5.329,5.329,0,0,0,.547-.08c.182-.036.361-.082.537-.135a5.472,5.472,0,0,0,.52-.186c.171-.071.337-.15.5-.237a5.49,5.49,0,0,0,.475-.283,5.38,5.38,0,0,0,.444-.33c.143-.116.279-.241.41-.37s.254-.267.372-.41.227-.29.33-.444.2-.311.283-.475.166-.33.237-.5.134-.345.187-.521.1-.356.135-.536.063-.364.08-.548a5.435,5.435,0,0,0,.028-.552c0-.184-.009-.369-.027-.552s-.045-.366-.082-.548-.08-.36-.134-.536-.116-.35-.187-.521a5.315,5.315,0,0,0-.235-.5,5.5,5.5,0,0,0-.285-.475c-.1-.154-.213-.3-.329-.445s-.241-.279-.372-.409a5.374,5.374,0,0,0-.409-.372c-.143-.118-.291-.227-.444-.33a5.5,5.5,0,0,0-.474-.285c-.163-.087-.329-.166-.5-.237s-.344-.132-.52-.186-.356-.1-.537-.135-.362-.063-.547-.082-.368-.027-.552-.027-.369.009-.552.027-.366.045-.547.082-.36.082-.536.135-.35.116-.521.186-.337.15-.5.237-.321.183-.473.285-.3.213-.445.33-.278.241-.409.372-.254.267-.372.41-.226.29-.329.444a5.5,5.5,0,0,0-.285.475,5.344,5.344,0,0,0-.235.5,5.476,5.476,0,0,0-.187.52c-.053.176-.1.356-.134.537a5.384,5.384,0,0,0-.08.547,5.476,5.476,0,0,0-.028.553c0,.184.009.368.028.552a5.44,5.44,0,0,0,.082.547,5.323,5.323,0,0,0,.134.536,5.468,5.468,0,0,0,.186.52c.071.171.15.337.237.5s.182.321.283.475.213.3.33.444a5.353,5.353,0,0,0,.37.409c.13.131.267.254.409.372s.29.227.444.329.311.2.473.285.329.166.5.237a5.465,5.465,0,0,0,.52.186c.176.053.354.1.536.135s.362.063.545.082S134.192,153.872,134.376,153.872Zm0,.687c-.207,0-.413-.011-.619-.031a5.957,5.957,0,0,1-.614-.091,6.18,6.18,0,0,1-.6-.15c-.2-.06-.393-.13-.584-.208s-.378-.168-.561-.266-.36-.2-.532-.318-.338-.238-.5-.369-.313-.271-.46-.417-.285-.3-.416-.46a6.081,6.081,0,0,1-.37-.5c-.115-.172-.222-.349-.319-.532a6.14,6.14,0,0,1-.265-.561,5.953,5.953,0,0,1-.21-.584c-.06-.2-.11-.4-.151-.6s-.071-.408-.091-.613-.031-.413-.031-.62.011-.414.031-.62.051-.41.091-.614.091-.4.15-.6a6.383,6.383,0,0,1,.474-1.145q.146-.275.318-.533c.115-.171.238-.338.37-.5s.27-.313.416-.46.3-.285.46-.416a6.091,6.091,0,0,1,.5-.37c.171-.115.349-.222.531-.319s.37-.186.561-.265a6.081,6.081,0,0,1,.584-.21c.2-.06.4-.11.6-.151s.408-.071.613-.091.412-.031.619-.031.414.011.62.031.41.051.613.091.4.091.6.151.393.131.584.21.377.167.56.265.36.2.532.319.338.239.5.37a6.139,6.139,0,0,1,.458.417,5.912,5.912,0,0,1,.417.46q.2.241.369.5c.115.172.222.349.319.532s.186.37.265.561.148.386.209.584a6.21,6.21,0,0,1,.151.6c.04.2.07.408.091.613s.029.413.029.62a5.994,5.994,0,0,1-.031.619c-.02.206-.051.41-.091.613s-.091.4-.15.6a6.081,6.081,0,0,1-.21.584c-.079.191-.167.377-.265.56s-.2.36-.318.532-.238.338-.369.5-.27.313-.417.458a6.139,6.139,0,0,1-.458.417q-.241.2-.5.369t-.532.319c-.183.1-.369.186-.56.265a6.081,6.081,0,0,1-.584.21c-.2.06-.4.11-.6.151s-.408.071-.613.091S134.583,154.559,134.376,154.559Zm0,0" transform="translate(0 -0.01)" fill="#012cb2"/></g></svg>