<svg
    xmlns="http://www.w3.org/2000/svg"
    width="181"
    viewBox="0 0 181 40"
    fill="none"
>
    <path
        d="M170.119 12.5647V17.1046H178.666V22.9429H170.119V27.4661H181V33.4428H163.908V6.58798H181V12.5632H170.119V12.5647ZM146.012 20.0162L139.915 6.59102H133.004L146.012 33.7484L159.021 6.59254H152.11L146.012 20.0162ZM124.406 22.0565L133.387 33.4413H125.977L117.431 22.5339H117.358V33.4413H111.14V6.58798H121.543C123.456 6.59146 125.31 7.24917 126.798 8.45199C128.263 9.6362 129.258 11.304 129.604 13.1561C129.947 14.9984 129.614 16.9027 128.665 18.5186C127.702 20.1598 126.195 21.4106 124.406 22.0565ZM123.712 14.7966C123.712 14.4317 123.637 14.0805 123.49 13.7445C123.343 13.4094 123.13 13.1073 122.864 12.8565C122.597 12.6057 122.283 12.4113 121.94 12.2849C121.593 12.1538 121.224 12.0919 120.853 12.1025H117.358V17.4436H120.853C121.221 17.4612 121.588 17.406 121.934 17.281C122.279 17.156 122.597 16.9638 122.868 16.7154C123.136 16.4704 123.349 16.1727 123.496 15.8411C123.638 15.5106 123.711 15.1563 123.712 14.7966ZM97.3066 22.6267C97.3066 25.8758 95.2461 27.9207 92.2161 27.9207C89.1892 27.9207 87.1438 25.8819 87.1438 22.6267V6.58646H80.9259V22.5583C80.9259 29.2906 85.6289 33.7499 92.2328 33.7499C98.8367 33.7499 103.534 29.2845 103.534 22.5583V6.58798H97.3172L97.305 22.6267H97.3066ZM30.0363 30.1025C29.9449 30.1382 29.8631 30.1949 29.7978 30.2682C29.7335 30.3387 29.6885 30.4246 29.6671 30.5176C29.6435 30.6111 29.6456 30.7094 29.6732 30.8019C29.696 30.8931 29.7476 30.9782 29.8099 31.0512C30.0774 31.4541 30.5545 32.1474 31.2444 33.125C31.9327 34.1027 32.4691 34.8461 32.8445 35.3692C32.9979 35.6307 33.2092 35.6474 33.4766 35.4254C34.4547 34.6152 35.3739 33.7362 36.227 32.7951C38.6077 29.9461 40.1716 26.5044 40.7522 22.8365C40.7932 22.797 40.7127 22.8365 40.5242 22.9505C35.4459 26.3638 31.951 28.7509 30.0379 30.1025H30.0363ZM39.415 12.2864C39.3572 12.2697 39.2098 12.3321 38.9819 12.4795L31.8704 17.2916C29.5659 18.8652 27.2562 20.4312 24.9413 21.9896C24.6009 22.1873 24.3335 22.4777 24.1679 22.8259C24.1101 23.0463 24.2302 23.3823 24.5371 23.8369L27.3908 27.8067C27.6583 28.1822 27.868 28.3875 28.0229 28.4209C28.1749 28.4559 28.4439 28.3464 28.8253 28.0864C30.0765 27.1946 31.3461 26.3288 32.6332 25.4896C33.8003 24.7278 34.9562 23.9493 36.1008 23.1543C37.5682 22.1862 39.022 21.1979 40.4619 20.1895C40.6307 20.107 40.7735 19.9797 40.8748 19.8215C40.9761 19.6633 41.032 19.4803 41.0363 19.2924C40.9321 17.0188 40.4732 14.7755 39.6763 12.6437C39.5563 12.4278 39.4712 12.3092 39.415 12.2864ZM18.5881 15.0536C18.5881 15.382 18.7081 15.6997 18.93 15.9506L21.8323 20.0861C22.0603 20.4206 22.232 20.5985 22.3794 20.6152C22.6442 20.5867 22.8944 20.4798 23.0981 20.3081C23.8275 19.8246 26.274 18.1719 30.4421 15.3364C34.1148 12.8368 36.5233 11.2358 37.6675 10.4163C38.0474 10.1959 38.248 10.0256 38.2647 9.91766C38.2814 9.80363 38.1796 9.58317 37.9456 9.24716C36.9486 7.78433 35.7747 6.45045 34.4506 5.27588C34.0692 4.89578 33.8124 4.70725 33.6757 4.70725C33.3528 4.79348 33.0509 4.94453 32.7882 5.1512C32.7659 5.14999 32.7438 5.15527 32.7244 5.16641C32.7044 5.17543 32.6871 5.18959 32.6743 5.20746C32.656 5.22418 32.577 5.25307 32.5603 5.26371C32.5421 5.27588 32.5831 5.26371 32.5603 5.26371C28.1086 8.28801 23.6543 11.3085 19.1974 14.3253C18.9104 14.4828 18.6933 14.7429 18.5896 15.0536H18.5881ZM29.1489 34.6987C28.5168 33.8244 28.108 33.2391 27.9196 32.938C27.6127 32.5275 27.3847 32.301 27.2313 32.2675C26.912 32.2657 26.5971 32.3414 26.3135 32.488C23.4041 33.7101 20.1794 33.9654 17.1141 33.2163C14.1966 32.5933 11.5655 31.0261 9.62735 28.7569C6.64296 25.1886 5.67046 21.2507 6.70071 16.9556C8.03335 11.3255 11.4766 7.8712 17.023 6.60471C19.5384 6.04698 22.159 6.19643 24.5949 7.0365C24.8307 7.13208 25.0881 7.16152 25.3394 7.12164C25.5905 7.0815 25.8264 6.97554 26.0232 6.81452C26.1782 6.70201 27.0033 6.14555 28.4955 5.13904C29.9467 4.16751 30.79 3.58823 31.018 3.40579C31.2459 3.22334 31.3827 3.11083 31.4161 3.0713C31.4161 2.9968 31.2839 2.88429 31.0164 2.73681C27.0591 0.435804 22.4382 -0.452456 17.9104 0.217507C13.3541 0.773462 9.1221 2.86278 5.90902 6.14251C3.2234 8.79094 1.34569 12.1488 0.494889 15.8244C-0.343883 19.4805 -0.112826 23.3009 1.16045 26.8291C2.45291 30.3957 4.75559 33.5085 7.78718 35.7873C10.9626 38.2523 14.8099 39.6968 18.8221 39.9304C22.8477 40.262 26.8821 39.4045 30.4253 37.4643C30.4992 37.4422 30.5659 37.4007 30.6183 37.3442C30.6702 37.2883 30.7073 37.2204 30.7262 37.1465C30.7446 37.0732 30.7427 36.9963 30.7208 36.924C30.6988 36.8517 30.6576 36.7867 30.6016 36.736C30.2597 36.2647 29.7811 35.5835 29.1489 34.6987ZM50.0807 19.9325C50.0411 27.5056 55.9506 33.9765 65.4007 34.0221C69.8712 34.0449 72.8252 32.5458 75.7123 30.2667L72.3085 25.3984C70.4361 27.1166 67.9759 28.05 65.4356 28.0059C60.3285 27.983 57.1572 24.4329 57.18 19.9675C57.2028 15.5021 60.4135 11.9854 65.5147 12.0082C68.0538 11.9867 70.5041 12.9425 72.3587 14.678L75.8141 9.84316C72.9574 7.53671 70.0064 6.00871 65.5435 5.9859C56.0874 5.95702 50.108 12.3777 50.0685 19.9508L50.0807 19.9325Z"
        fill="#0D121C"
    />
</svg>