<svg width="85" height="26" viewBox="0 0 85 26" fill="none" xmlns="http://www.w3.org/2000/svg">
<path d="M0.786851 15.9446C0.670886 15.8605 0.61938 15.689 0.561791 15.5511C0.148982 14.5623 -0.00617673 13.5647 0.000187331 12.6901C0.00736798 11.6791 0.189846 10.7052 0.529189 9.80035C1.20791 7.9902 2.39271 6.2222 4.72565 4.98942C5.35916 4.65448 5.98592 4.43279 6.5696 4.27321C8.28445 3.80475 9.86402 3.83073 11.2485 4.21735C12.1256 4.46202 13.0446 4.89254 13.7788 5.6244C14.158 6.00243 14.5308 6.52504 14.6808 7.09038C14.9514 8.10884 14.6172 9.10735 13.8198 9.806C13.4016 10.1724 12.8136 10.4392 12.1689 10.7363C8.40365 12.472 4.5801 14.2282 0.786851 15.9446ZM17.0947 9.83641C17.4595 10.4479 17.6111 11.0841 17.7239 11.671C18.0564 13.4012 17.7948 15.0391 17.1362 16.47C16.9115 16.9584 16.686 17.4291 16.3734 17.8898C15.481 19.2066 14.0532 20.5631 11.8435 21.3252C10.5652 21.7656 9.33852 21.8784 8.18644 21.8203C7.05948 21.7637 6.00501 21.4411 5.10078 20.9355C4.64155 20.6788 4.19812 20.3057 3.81449 19.853C3.39869 19.3622 3.14243 18.7386 3.09474 18.1327C3.02894 17.3015 3.40353 16.5425 4.06274 15.9505C4.30313 15.7352 4.59193 15.5414 4.9468 15.373C5.95739 14.8933 6.99963 14.4271 8.02366 13.9553C11.0406 12.5661 13.9922 11.224 17.0947 9.83641Z" fill="#FFFFFF"/>
<path d="M59.0066 26L60.2439 22.9458L62.2019 17.7185H63.283L60.0757 26H59.0066ZM60.0757 24.2616L57.541 17.7185H58.6462L60.5682 22.8371L60.0757 24.2616Z" fill="#FFFFFF"/>
<path d="M53.9633 23.8029L51.5969 17.7185H52.714L54.5039 22.4749L56.3058 17.7185H57.3749L54.9964 23.8029H53.9633Z" fill="#FFFFFF"/>
<path d="M49.7279 23.8029V17.7185H50.761V23.8029H49.7279ZM49.7279 23.8029V22.9458H50.761V23.8029H49.7279ZM49.7279 18.5757V17.7185H50.761V18.5757H49.7279ZM50.2445 16.6562C50.0362 16.6562 49.8601 16.5878 49.7159 16.451C49.5718 16.3142 49.4997 16.1411 49.4997 15.9319C49.4997 15.787 49.5317 15.6623 49.5958 15.5576C49.6679 15.453 49.7559 15.3685 49.8601 15.3041C49.9722 15.2397 50.1003 15.2075 50.2445 15.2075C50.4607 15.2075 50.6369 15.276 50.773 15.4128C50.9172 15.5496 50.9892 15.7226 50.9892 15.9319C50.9892 16.0687 50.9572 16.1934 50.8931 16.3061C50.8291 16.4107 50.741 16.4952 50.6289 16.5596C50.5167 16.624 50.3886 16.6562 50.2445 16.6562Z" fill="#FFFFFF"/>
<path d="M45.2741 23.8029V17.7185H46.2952V18.793C46.4153 18.5354 46.5715 18.3181 46.7637 18.1411C46.9559 17.964 47.1761 17.8352 47.4244 17.7548C47.6726 17.6662 47.9249 17.622 48.1812 17.622C48.3093 17.622 48.4414 17.634 48.5776 17.6582C48.7137 17.6743 48.8298 17.7065 48.9259 17.7548L48.8539 18.7326C48.7177 18.6682 48.5856 18.632 48.4574 18.624C48.3293 18.6079 48.2012 18.5998 48.073 18.5998C47.8248 18.5998 47.5885 18.6602 47.3643 18.7809C47.1481 18.9016 46.9599 19.0787 46.7997 19.3121C46.6396 19.5455 46.5154 19.8352 46.4273 20.1813C46.3392 20.5273 46.2952 20.9217 46.2952 21.3643V23.8029H45.2741Z" fill="#FFFFFF"/>
<path d="M37.9577 26V17.7185H38.9908V18.7085C39.1109 18.4831 39.2751 18.29 39.4833 18.129C39.6995 17.968 39.9438 17.8433 40.2161 17.7548C40.4964 17.6662 40.7847 17.622 41.081 17.622C41.6896 17.622 42.2181 17.7548 42.6666 18.0203C43.1151 18.2779 43.4634 18.6441 43.7117 19.1189C43.968 19.5857 44.0961 20.133 44.0961 20.7607C44.0961 21.2275 44.024 21.654 43.8799 22.0404C43.7357 22.4267 43.5315 22.7607 43.2672 23.0423C43.003 23.316 42.6866 23.5292 42.3183 23.6822C41.9499 23.827 41.5374 23.8995 41.081 23.8995C40.7927 23.8995 40.5084 23.8552 40.2281 23.7667C39.9558 23.6781 39.7115 23.5534 39.4953 23.3924C39.2791 23.2234 39.1109 23.0262 38.9908 22.8009V26H37.9577ZM41.0089 23.0061C41.4013 23.0061 41.7497 22.9095 42.054 22.7164C42.3663 22.5232 42.6065 22.2577 42.7747 21.9196C42.9509 21.5816 43.039 21.1953 43.039 20.7607C43.039 20.3181 42.9509 19.9277 42.7747 19.5897C42.6065 19.2517 42.3663 18.9901 42.054 18.805C41.7497 18.6119 41.4013 18.5153 41.0089 18.5153C40.7206 18.5153 40.4523 18.5716 40.2041 18.6843C39.9558 18.7889 39.7396 18.9418 39.5554 19.1431C39.3712 19.3362 39.231 19.5736 39.1349 19.8553C39.0388 20.1289 38.9908 20.4307 38.9908 20.7607C38.9908 21.1953 39.0749 21.5816 39.2431 21.9196C39.4192 22.2577 39.6595 22.5232 39.9638 22.7164C40.2761 22.9095 40.6245 23.0061 41.0089 23.0061Z" fill="#FFFFFF"/>
<path d="M30.499 26L31.7363 22.9458L33.6944 17.7185H34.7755L31.5682 26H30.499ZM31.5682 24.2616L29.0335 17.7185H30.1387L32.0607 22.8371L31.5682 24.2616Z" fill="#FFFFFF"/>
<path d="M25.6893 23.8995C25.401 23.8995 25.1167 23.8552 24.8364 23.7667C24.5641 23.6781 24.3199 23.5534 24.1036 23.3924C23.8874 23.2234 23.7192 23.0262 23.5991 22.8009V23.8029H22.566V15.2558H23.5991V18.7085C23.7192 18.4831 23.8834 18.29 24.0916 18.129C24.3078 17.968 24.5521 17.8433 24.8244 17.7548C25.1047 17.6662 25.393 17.622 25.6893 17.622C26.2979 17.622 26.8265 17.7548 27.2749 18.0203C27.7234 18.2779 28.0718 18.6441 28.32 19.1189C28.5763 19.5857 28.7044 20.133 28.7044 20.7607C28.7044 21.2275 28.6283 21.654 28.4762 22.0404C28.332 22.4267 28.1278 22.7607 27.8635 23.0423C27.6073 23.316 27.295 23.5292 26.9266 23.6822C26.5582 23.827 26.1458 23.8995 25.6893 23.8995ZM25.6172 23.0061C26.0096 23.0061 26.358 22.9095 26.6623 22.7164C26.9746 22.5232 27.2149 22.2576 27.383 21.9196C27.5592 21.5816 27.6473 21.1953 27.6473 20.7607C27.6473 20.3181 27.5592 19.9277 27.383 19.5897C27.2149 19.2517 26.9746 18.9901 26.6623 18.805C26.358 18.6119 26.0096 18.5153 25.6172 18.5153C25.3289 18.5153 25.0606 18.5716 24.8124 18.6843C24.5641 18.7889 24.3479 18.9418 24.1637 19.143C23.9795 19.3362 23.8394 19.5736 23.7433 19.8553C23.6472 20.1289 23.5991 20.4307 23.5991 20.7607C23.5991 21.1953 23.6832 21.5816 23.8514 21.9196C24.0276 22.2576 24.2678 22.5232 24.5721 22.7164C24.8844 22.9095 25.2328 23.0061 25.6172 23.0061Z" fill="#FFFFFF"/>
<path d="M26.7184 12.7547C29.0706 12.7547 30.5433 11.3318 30.8705 9.76452H29.0706C28.7638 10.5688 28.1093 11.2493 26.7184 11.2493C24.6935 11.2493 23.8958 9.88826 23.8345 8.32098H30.8705C30.9523 7.80543 30.9523 7.41361 30.9523 7.14553C30.9523 4.75337 29.0706 2.91802 26.6571 2.91802C23.7322 2.91802 22.0755 5.02146 22.0755 7.84668C22.0755 10.5482 23.589 12.7547 26.7184 12.7547ZM29.2342 6.95993H23.8549C23.9163 5.2483 25.0003 4.29969 26.6162 4.29969C28.1093 4.29969 29.2342 5.31017 29.2342 6.95993ZM33.7749 12.5279V7.76419C33.7749 5.55763 34.6954 4.50591 36.0657 4.50591C37.3134 4.50591 38.0088 5.35141 38.0088 7.24864V12.5279H39.7883V7.76419C39.7883 5.55763 40.6678 4.50591 42.0587 4.50591C43.3472 4.50591 44.0222 5.41328 44.0222 7.14553V12.5279H45.8017V6.60936C45.8017 4.54715 44.9426 2.91802 42.4882 2.91802C41.0155 2.91802 39.8906 3.84601 39.502 4.91835C39.1542 3.70165 38.2338 2.91802 36.5157 2.91802C35.1249 2.91802 34.1227 3.78414 33.7749 4.83586V3.16548H31.9955V12.5279H33.7749ZM51.9378 12.7547C54.924 12.7547 56.8466 10.4863 56.8466 7.84668C56.8466 5.18644 54.924 2.91802 51.9378 2.91802C48.9924 2.91802 47.0698 5.18644 47.0698 7.84668C47.0698 10.4863 48.9924 12.7547 51.9378 12.7547ZM51.9378 11.1462C50.056 11.1462 48.8288 9.64079 48.8288 7.84668C48.8288 6.05256 50.056 4.52653 51.9378 4.52653C53.8399 4.52653 55.0876 6.05256 55.0876 7.84668C55.0876 9.64079 53.8399 11.1462 51.9378 11.1462ZM61.5203 12.6516C62.1134 12.6516 62.7679 12.5897 63.1157 12.5279V10.94C62.8498 11.0018 62.2975 11.0225 61.9089 11.0225C61.0089 11.0225 60.3749 10.7956 60.3749 8.98089V4.67089H62.7884V3.16548H60.3749V0.010311H58.5954V3.16548H56.8773V4.67089H58.5954V9.37271C58.5954 12.4454 60.3749 12.6516 61.5203 12.6516ZM65.0748 2.0622C65.6446 2.0622 66.1121 1.6203 66.1121 1.04583C66.1121 0.47136 65.6446 0 65.0748 0C64.505 0 64.0668 0.47136 64.0668 1.04583C64.0668 1.6203 64.505 2.0622 65.0748 2.0622ZM65.9689 12.5279V3.16548H64.1895V12.5279H65.9689ZM72.0641 12.5279L76.3185 3.16548H74.3958L71.4505 9.97074L68.5461 3.16548H66.6235L70.8369 12.5279H72.0641ZM80.3887 12.7547C82.7409 12.7547 84.2136 11.3318 84.5408 9.76452H82.7409C82.4341 10.5688 81.7796 11.2493 80.3887 11.2493C78.3638 11.2493 77.5661 9.88826 77.5048 8.32098H84.5408C84.6226 7.80543 84.6226 7.41361 84.6226 7.14553C84.6226 4.75337 82.7409 2.91802 80.3274 2.91802C77.4025 2.91802 75.7458 5.02146 75.7458 7.84668C75.7458 10.5482 77.2593 12.7547 80.3887 12.7547ZM82.9045 6.95993H77.5252C77.5866 5.2483 78.6706 4.29969 80.2865 4.29969C81.7796 4.29969 82.9045 5.31017 82.9045 6.95993Z" fill="#FFFFFF"/>
</svg>
