<svg fill="none" height="27" viewBox="0 0 184 27" width="184" xmlns="http://www.w3.org/2000/svg"><g fill="#6629e7"><path d="m51.2176 22.124v-18.63523h3.5294v6.41763c.5256-.63361 1.1901-1.13772 1.9419-1.47332.7517-.3356 1.5707-.49367 2.3933-.46197 3.1471 0 5.4412 2.11179 5.4412 5.97059v8.1823h-3.5294v-7.7058c0-2.2412-1.2353-3.453-3.1-3.453s-3.147 1.2118-3.147 3.453v7.7058zm15.9293-7.0235c0-4.3588 2.8177-7.1588 6.3706-7.1588.8906-.02976 1.7751.15638 2.5782.54254.803.38616 1.5007.96088 2.0336 1.67506v-1.98819h3.5294v13.95289h-3.5294v-2.0412c-.5276.7292-1.2262 1.3176-2.0344 1.7136-.8083.3959-1.7014.5872-2.6009.557-3.5294 0-6.3471-2.9-6.3471-7.2529zm10.9824.0471c0-2.6412-1.7647-4.1177-3.7059-4.1177s-3.6765 1.4118-3.6765 4.0588c0 2.6471 1.7647 4.153 3.6765 4.153 1.9117 0 3.7059-1.4471 3.7059-4.0941zm26.7117 6.9764v-7.7058c0-2.2177-1.235-3.3765-3.1-3.3765-1.8647 0-3.1236 1.1765-3.1236 3.3765v7.7058h-3.5294v-7.7058c0-2.2177-1.2294-3.3765-3.0941-3.3765s-3.147 1.1765-3.147 3.3765v7.7058h-3.5294v-13.95289h3.5294v1.68823c.4927-.61275 1.1212-1.10239 1.8359-1.43013.7147-.32773 1.4959-.48458 2.2817-.4581 2.1706 0 3.9588.92941 4.9118 2.67059.497-.82302 1.2001-1.50221 2.0398-1.97054.8399-.46833 1.7869-.70962 2.7489-.70005 3.352 0 5.717 2.11179 5.717 5.97059v8.1823zm26.582 0v-7.7058c0-2.2177-1.235-3.3765-3.1-3.3765-1.864 0-3.123 1.1765-3.123 3.3765v7.7058h-3.53v-7.7058c0-2.2177-1.235-3.3765-3.1-3.3765-1.864 0-3.147 1.1765-3.147 3.3765v7.7058h-3.529v-13.95289h3.529v1.68823c.494-.61206 1.122-1.1012 1.837-1.42887.714-.32767 1.495-.48492 2.281-.45936.985-.05208 1.966.1699 2.833.64131s1.587 1.17381 2.079 2.02928c.496-.82256 1.198-1.50152 2.037-1.96986.838-.46833 1.784-.70986 2.745-.70073 3.353 0 5.718 2.11179 5.718 5.97059v8.1823zm20.541-6.9764c0 4.3823-3.223 7.2058-7.282 7.2058s-7.059-2.8235-7.059-7.2058c0-4.3824 3.147-7.2059 7.177-7.2059 4.029 0 7.164 2.8 7.164 7.2059zm-10.788 0c0 2.7705 1.612 4.1176 3.53 4.1176 1.917 0 3.653-1.3588 3.653-4.1176 0-2.7589-1.736-4.1177-3.6-4.1177-1.865 0-3.583 1.3236-3.583 4.1177zm12.653 0c0-4.3824 2.877-7.2059 6.906-7.2059 3.476 0 5.818 1.81764 6.571 4.9412h-3.777c-.179-.5921-.553-1.106-1.062-1.4585-.508-.3524-1.121-.5225-1.738-.4827-1.965 0-3.27 1.4882-3.27 4.2059 0 2.7176 1.305 4.1823 3.27 4.1823.616.0559 1.232-.1043 1.743-.4531s.885-.8645 1.057-1.4587h3.8c-.753 2.9412-3.094 4.9353-6.571 4.9353-4.047 0-6.923-2.8235-6.923-7.2058zm16.259 6.9764v-18.63523h3.529v10.58823l4.706-5.91765h4.582l-6.141 6.99995 6.177 6.9647h-4.583l-4.705-5.9411v5.9411z"/><path clip-rule="evenodd" d="m31.5764.129883 5.3647 6.841157h-3.7412l-1.6235-2.39999-1.6176 2.39999h-3.7471zm-26.21171 0 5.36471 6.841157h-3.74118l-1.62353-2.39999-1.62352 2.39999h-3.74117zm18.97641 25.252917c-2.192-.784-4.1822-2.0457-5.8264-3.6939-1.6441-1.6482-2.9009-3.6415-3.6794-5.8355 1.1389.5147 2.3736.7833 3.6235.7882 4.2529 0 7.7058-2.8647 7.7058-6.3941h10.7765c0 7.047-5.2765 13.0117-12.6 15.1353zm-13.5294-15.1353c-.0176 3.1166.7228 6.1907 2.1575 8.9576 1.4346 2.7668 3.5205 5.1433 6.0778 6.9247h-.5353c-10.22936.0236-18.5117-7.1-18.5117-15.8823z" fill-rule="evenodd"/></g></svg>