<svg width="141" height="27" viewBox="0 0 141 27" fill="none" xmlns="http://www.w3.org/2000/svg">
<path d="M117.974 20.6513H110.565V9.35624H108.748V5.83353H110.565V2.47856H114.871V5.83353H118.254V9.35624H114.871V17.1251H117.974V20.6513Z" fill="#E5E4F6"/>
<path d="M131.112 20.5323L124.934 5.85055H129.643L133.355 15.6292L136.735 5.85055H141.001L135.405 20.5323H131.112Z" fill="#E5E4F6"/>
<path d="M119.826 20.5323V5.85051H124.092V20.5323H119.826ZM119.599 4.46543V0.0332536C119.599 0.0332536 121.164 0.0332031 121.959 0.0332031C122.753 0.0332031 124.318 0.0332536 124.318 0.0332536V4.46543H119.599Z" fill="#E5E4F6"/>
<path d="M101.388 20.8923C99.9474 20.8923 98.6639 20.6152 97.5374 20.0612C96.4109 19.5072 95.5244 18.6669 94.878 17.5404C94.2317 16.4139 93.9085 15.0103 93.9085 13.3298V12.7757C93.9085 11.2245 94.2409 9.90402 94.9057 8.81443C95.5891 7.72484 96.494 6.90303 97.6205 6.349C98.7655 5.7765 100.021 5.49025 101.388 5.49025C102.865 5.49025 104.103 5.7488 105.1 6.26589C106.097 6.76452 106.864 7.43859 107.399 8.2881C107.935 9.13761 108.239 10.0795 108.313 11.1136H103.909C103.779 10.4488 103.512 9.94095 103.105 9.59007C102.718 9.22072 102.145 9.03604 101.388 9.03604C100.797 9.03604 100.261 9.17455 99.7812 9.45156C99.3195 9.72858 98.9502 10.1441 98.6731 10.6981C98.4146 11.2337 98.2853 11.9262 98.2853 12.7757V13.3298C98.2853 14.2347 98.4146 14.9826 98.6731 15.5736C98.9317 16.1645 99.2918 16.6078 99.7535 16.9032C100.215 17.1803 100.76 17.3188 101.388 17.3188C102.034 17.3188 102.579 17.1526 103.022 16.8201C103.484 16.4693 103.779 15.9522 103.909 15.2689H108.313C108.239 16.4139 107.907 17.4111 107.316 18.2606C106.725 19.1101 105.922 19.7657 104.906 20.2274C103.909 20.6706 102.736 20.8923 101.388 20.8923Z" fill="#E5E4F6"/>
<path d="M86.0179 20.8923C84.5774 20.8923 83.2847 20.6245 82.1397 20.0889C80.9947 19.5349 80.0805 18.6946 79.3972 17.5681C78.7324 16.4416 78.4 15.0288 78.4 13.3298V12.7757C78.4 11.1506 78.7232 9.80245 79.3695 8.73132C80.0159 7.6602 80.8931 6.85686 82.0012 6.3213C83.1277 5.76727 84.3743 5.49025 85.7409 5.49025C88.1601 5.49025 89.9884 6.11815 91.2257 7.37395C92.4631 8.61128 93.0817 10.4119 93.0817 12.7757V14.327H82.7768C82.8137 15.0473 82.9799 15.6475 83.2754 16.1276C83.5894 16.6078 83.9864 16.9587 84.4666 17.1803C84.9468 17.3834 85.4638 17.485 86.0179 17.485C86.8304 17.485 87.4676 17.3649 87.9293 17.1249C88.4094 16.8663 88.7234 16.5247 88.8711 16.0999H92.8047C92.5092 17.7066 91.7798 18.907 90.6163 19.7011C89.4529 20.4952 87.92 20.8923 86.0179 20.8923ZM85.8794 8.89753C85.3623 8.89753 84.8729 8.98064 84.4112 9.14684C83.9495 9.31305 83.5709 9.59007 83.2754 9.97789C82.9984 10.3472 82.8414 10.8551 82.8045 11.5015H88.8988C88.8988 10.8182 88.7603 10.2918 88.4833 9.92249C88.2063 9.53467 87.8369 9.26688 87.3752 9.11914C86.932 8.9714 86.4334 8.89753 85.8794 8.89753Z" fill="#E5E4F6"/>
<path d="M62.7422 26.0724V5.85037H66.6758V7.84488C67.0636 7.25391 67.6361 6.71835 68.3933 6.23819C69.169 5.73957 70.12 5.49025 71.2466 5.49025C73.3149 5.49025 74.8847 6.09969 75.9558 7.31855C77.0269 8.53741 77.5625 10.3565 77.5625 12.7757V13.3298C77.5625 14.9918 77.304 16.3862 76.7869 17.5127C76.2698 18.6207 75.5403 19.461 74.5984 20.0335C73.6566 20.606 72.5393 20.8923 71.2466 20.8923C70.4155 20.8923 69.6214 20.7076 68.8642 20.3382C68.1255 19.9504 67.5069 19.3964 67.0082 18.6761V26.0724H62.7422ZM70.2216 17.3742C71.0711 17.3742 71.7729 17.0325 72.3269 16.3492C72.8994 15.6474 73.1857 14.641 73.1857 13.3298V12.7757C73.1857 11.5015 72.9086 10.5596 72.3546 9.95019C71.8191 9.32229 71.1081 9.00834 70.2216 9.00834C69.6306 9.00834 69.0859 9.13761 68.5872 9.39616C68.1071 9.63624 67.7192 10.0056 67.4238 10.5042C67.1467 11.0028 67.0082 11.6215 67.0082 12.3602V13.7453C67.0082 14.5025 67.1467 15.1581 67.4238 15.7121C67.7192 16.2476 68.1071 16.6632 68.5872 16.9586C69.0859 17.2357 69.6306 17.3742 70.2216 17.3742Z" fill="#E5E4F6"/>
<path d="M54.4436 20.8923C53.2432 20.8923 52.209 20.7722 51.341 20.5321C50.4915 20.2736 49.7898 19.9319 49.2357 19.5072C48.6817 19.064 48.2662 18.5561 47.9892 17.9836C47.7121 17.3926 47.5552 16.7647 47.5182 16.0999H51.7843C51.8951 16.5062 52.1351 16.8663 52.5045 17.1803C52.8739 17.4757 53.5202 17.6235 54.4436 17.6235C55.3855 17.6235 56.0595 17.4942 56.4658 17.2357C56.8721 16.9771 57.0752 16.6355 57.0752 16.2107C57.0752 15.9891 56.9829 15.7952 56.7982 15.629C56.632 15.4443 56.3088 15.2781 55.8287 15.1304C55.367 14.9826 54.6929 14.8349 53.8065 14.6871C52.9939 14.5579 52.2275 14.3917 51.5072 14.1885C50.8055 13.9854 50.1868 13.7176 49.6513 13.3852C49.1157 13.0343 48.6909 12.5911 48.377 12.0555C48.0815 11.5199 47.9338 10.8459 47.9338 10.0333C47.9338 9.16531 48.1923 8.38967 48.7094 7.70637C49.2265 7.02307 49.9744 6.48751 50.9532 6.09969C51.932 5.6934 53.0955 5.49025 54.4436 5.49025C55.9764 5.49025 57.1861 5.73033 58.0725 6.21049C58.9774 6.67218 59.6422 7.27238 60.067 8.01109C60.4918 8.73132 60.7411 9.4885 60.8149 10.2826H56.5212C56.4104 9.82091 56.1703 9.45156 55.801 9.17455C55.4501 8.89753 54.9976 8.75903 54.4436 8.75903C53.5941 8.75903 53.0031 8.8883 52.6707 9.14684C52.3568 9.40539 52.1998 9.71934 52.1998 10.0887C52.1998 10.458 52.4583 10.7535 52.9754 10.9751C53.4925 11.1783 54.3143 11.3537 55.4409 11.5015C56.2534 11.6123 57.0106 11.7692 57.7124 11.9724C58.4326 12.1755 59.0605 12.4618 59.5961 12.8311C60.1501 13.182 60.5841 13.6345 60.898 14.1885C61.212 14.7241 61.369 15.3797 61.369 16.1553C61.369 17.0787 61.1012 17.9005 60.5656 18.6207C60.0485 19.341 59.2729 19.9042 58.2387 20.3105C57.223 20.6983 55.9579 20.8923 54.4436 20.8923Z" fill="#E5E4F6"/>
<path d="M32.131 20.5321V5.85037H36.0646V7.84488C36.434 7.18004 37.0065 6.62601 37.7821 6.18279C38.5762 5.7211 39.6289 5.49025 40.9401 5.49025C42.6945 5.49025 44.0149 5.96118 44.9014 6.90303C45.8063 7.84488 46.2588 9.20225 46.2588 10.9751V20.5321H41.9927V11.9447C41.9927 10.9844 41.7804 10.2641 41.3556 9.78398C40.9493 9.28535 40.2753 9.03604 39.3334 9.03604C38.6501 9.03604 38.0868 9.17455 37.6436 9.45156C37.2189 9.71011 36.9049 10.061 36.7018 10.5042C36.4986 10.929 36.397 11.4091 36.397 11.9447V20.5321H32.131Z" fill="#E5E4F6"/>
<path d="M24.3789 20.5321V1.14108H29.3652V20.5321H24.3789Z" fill="#E5E4F6"/>
<path d="M12.9248 20.5405H9.36816V13.6792L2.50684 20.5405L-0.0078125 18.0259L6.85254 11.1646H-0.0078125V7.60791H12.9248V20.5405ZM16.1582 9.54736H14.8652V5.66748H10.9854V4.37451H16.1582V9.54736ZM19.3916 6.31396H18.0977V2.43408H14.2178V1.14111H19.3916V6.31396Z" fill="#E5E4F6"/>
</svg>
