<svg width="155" height="32" viewBox="0 0 155 32" fill="none" xmlns="http://www.w3.org/2000/svg">
<g clip-path="url(#clip0_1628_1087)">
<path d="M134.287 19.6914H131.801V22.1523H134.287V19.6914Z" fill="white"/>
<path d="M144.165 9.85142V9.8457H139.261V12.3066H141.749V17.2298H136.775V14.7689H139.261V12.3066H136.775V14.7689H134.287V19.6906H135.39H136.775H141.749V22.153H144.235V9.85142H144.165Z" fill="white"/>
<path d="M154.182 12.3066V9.8457H146.721V12.3066H149.208V19.6906H146.721V22.153H154.182V19.6906H151.695V12.3066H154.182Z" fill="white"/>
<path d="M72.1185 14.7689V12.3066H79.5785V9.8457H72.1185H69.6309V17.2298H72.1185H79.5785V19.6907H82.0646V14.7689H79.5785H72.1185Z" fill="white"/>
<path d="M79.5164 19.6914H69.6309V22.1523H79.5164V19.6914Z" fill="white"/>
<path d="M44.7617 12.3066H47.2479V19.6906H44.7617V22.153H52.2217V19.6906H49.7355V12.3066H52.2217V9.8457H44.7617V12.3066Z" fill="white"/>
<path d="M82.0645 12.3066H87.0382V22.153H89.5244V12.3066H94.5574V9.8457H82.0645V12.3066Z" fill="white"/>
<path d="M97.0137 12.3066H99.4854V19.6906H97.0137V22.153H104.445V19.6906H101.973V12.3066H104.445V9.8457H97.0137V12.3066Z" fill="white"/>
<path d="M109.42 9.8457H106.934V19.6906V22.093V22.153H114.394V19.6906H109.42V9.8457Z" fill="white"/>
<path d="M119.367 9.8457H116.879V19.6906V22.093V22.153H124.34V19.6906H119.367V9.8457Z" fill="white"/>
<path d="M57.1966 12.3066V9.8457H54.709V12.3066V14.7689V22.153H57.1966V14.7689H59.6828V12.3066H57.1966Z" fill="white"/>
<path d="M62.1678 14.7695H59.6816V17.2304H62.1678V14.7695Z" fill="white"/>
<path d="M64.6561 17.2298H62.1699V19.6906H64.6561V22.153H67.1437V19.6906V17.2298V9.8457H64.6561V17.2298Z" fill="white"/>
<g clip-path="url(#clip1_1628_1087)">
<path d="M32.1817 29.5496V32.0124H0V0H32.1817V29.5496ZM29.7061 29.5496V22.1355H27.2292V29.5496H29.7061ZM29.7061 19.6727V12.3126H22.2495V19.6727H29.7061ZM29.7061 9.84988V7.38713H22.2495V9.84988H29.7061ZM29.7061 4.92551V2.46276H22.2495V4.92551H29.7061ZM24.7547 29.5496V22.1355H22.2495V29.5496H24.7547ZM19.7738 27.0869V22.1321H17.3276V24.6095H14.8813V27.0869H19.7738ZM19.7738 19.6727V12.3126H17.3276V19.6727H19.7738ZM19.7738 7.37136V2.46276H14.853V4.8996L14.8383 4.94239H12.3773V9.84988H17.3276V7.37249L19.7738 7.37136ZM14.853 24.5701V22.1355H12.3773V24.5701H14.853ZM14.853 19.6727V12.3126H12.3773V19.6727H14.853ZM9.90164 29.5496V22.1355H2.47569V29.5496H9.90164ZM9.90164 19.6727V12.3126H7.42595V19.6727H9.90164ZM9.90164 9.84988V4.94239H9.88126V2.465H7.42595V9.85213L9.90164 9.84988ZM4.95139 19.6727V12.3126H2.47569V19.6727H4.95139ZM4.95139 9.84988V2.46276H2.47569V9.84988H4.95139Z" fill="#1A1A1A"/>
<path d="M29.7042 22.1348H27.2285V29.5489H29.7042V22.1348Z" fill="#40A8F5"/>
<path d="M29.7054 12.3125H22.25V19.6726H29.7054V12.3125Z" fill="#40A8F5"/>
<path d="M29.7054 7.38672H22.25V9.84947H29.7054V7.38672Z" fill="#FF5353"/>
<path d="M29.7054 2.46289H22.25V4.92564H29.7054V2.46289Z" fill="#FFDF3A"/>
<path d="M24.754 22.1348H22.25V29.5489H24.754V22.1348Z" fill="#FFDF3A"/>
<path d="M19.7745 22.1348V27.0862H14.8809V24.6099H17.3271V22.1348H19.7745Z" fill="#FF5353"/>
<path d="M19.7744 12.3125H17.3281V19.6726H19.7744V12.3125Z" fill="#FFDF3A"/>
<path d="M19.7747 2.46289V7.3715H17.3273H17.3125V4.89974H14.8516V2.46289H19.7747Z" fill="#40A8F5"/>
<path d="M17.3272 7.37037V9.84889H12.377V4.94141H14.8368V7.37037H17.3125H17.3272Z" fill="#FFDF3A"/>
<path d="M17.3136 4.90039V7.37215H14.8379V4.94318L14.8526 4.90039H17.3136Z" fill="#1A1A1A"/>
<path d="M14.8526 22.1348H12.377V24.5694H14.8526V22.1348Z" fill="#28F77E"/>
<path d="M14.8526 12.3125H12.377V19.6726H14.8526V12.3125Z" fill="#FF5353"/>
<path d="M9.90056 22.1348V29.5489H2.47461V22.1348H4.94917H7.42486H9.90056Z" fill="#40A8F5"/>
<path d="M9.90147 12.3125H7.42578V19.6726H9.90147V12.3125Z" fill="#40A8F5"/>
<path d="M9.90147 4.94253V9.85001H7.42578V2.46289H9.88449V4.94253H9.90147Z" fill="#FFDF3A"/>
<path d="M4.9503 12.3125H2.47461V19.6726H4.9503V12.3125Z" fill="#FFDF3A"/>
<path d="M4.9503 2.46289H2.47461V9.85001H4.9503V2.46289Z" fill="#FF5353"/>
</g>
</g>
<defs>
<clipPath id="clip0_1628_1087">
<rect width="154.182" height="32" fill="white"/>
</clipPath>
<clipPath id="clip1_1628_1087">
<rect width="32.1806" height="32" fill="white"/>
</clipPath>
</defs>
</svg>
