<svg xml:space="preserve" style="enable-background:new 0 0 151 51;" viewBox="0 0 151 51" y="0px" x="0px" xmlns:xlink="http://www.w3.org/1999/xlink" xmlns="http://www.w3.org/2000/svg" id="Layer_1" version="1.1">
<style type="text/css">
	.st0{fill-rule:evenodd;clip-rule:evenodd;fill:#FF5440;}
	.st1{fill:#FFFFFF;}
</style>
<g id="Deck-Artwork">
	<g transform="translate(0.744898, 0.000000)" id="Group">
		<g id="Group-3">
			<g transform="translate(0.000000, 0.057445)" id="Group-2">
				<circle r="23.4" cy="23.4" cx="23.4" class="st0" id="Oval"></circle>
				<path d="M34.7,16.7c-1.2-1.2-2.7-1.9-4.4-1.9c-1.7,0-3.2,0.6-4.4,1.8c-1.2,1.2-1.8,2.7-1.8,4.4
					c0,4.4,3.3,6.3,6.7,7.1c-0.3,0.3-0.6,0.6-0.9,0.9h0c-1.5,1.4-3.6,2.9-6.4,4.2c0,0-0.1,0-0.1,0c-0.1,0-0.1,0-0.1,0
					c-2.8-1.4-4.9-2.8-6.4-4.2h0c-0.3-0.3-0.6-0.6-0.9-0.9c3.5-0.8,6.7-2.7,6.7-7.1c0-1.7-0.6-3.2-1.8-4.4c-1.2-1.2-2.7-1.8-4.4-1.8
					c-1.7,0-3.2,0.7-4.4,1.9c-1.2,1.3-1.9,3-1.8,4.8v0c0,0.2,0,0.4,0.1,0.6c0,0.1,0,0.1,0,0.2c0,0.1,0,0.3,0.1,0.4
					c0,0.1,0,0.2,0,0.2c0,0.1,0,0.2,0.1,0.3c0,0.1,0.1,0.3,0.1,0.4c0,0,0,0.1,0,0.1c0,0.2,0.1,0.3,0.1,0.5c0,0,0,0,0,0.1
					c0.1,0.2,0.1,0.3,0.2,0.5c0,0,0,0.1,0.1,0.1c0,0.1,0.1,0.2,0.1,0.3c0.1,0.1,0.1,0.3,0.2,0.4c0,0,0,0.1,0,0.1
					c0.1,0.2,0.2,0.4,0.3,0.5c0.1,0.2,0.2,0.4,0.4,0.6c0,0.1,0.1,0.1,0.1,0.2c0.4,0.7,0.8,1.2,1.1,1.6c0.2,0.2,0.4,0.4,0.6,0.6
					c0,0,0,0,0,0c0.1,0.1,0.1,0.1,0.2,0.2c0,0,0,0,0,0c2.9,3.1,6.6,5.1,8.2,5.8c0.4,0.2,0.8,0.3,1.1,0.3c0,0,0,0,0,0c0,0,0,0,0,0
					c0.4,0,0.8-0.1,1.1-0.3c1.6-0.8,5.3-2.7,8.2-5.8c0,0,0,0,0,0c0.1-0.1,0.1-0.1,0.2-0.2c0,0,0,0,0,0c0.2-0.2,0.4-0.4,0.6-0.6
					c0.3-0.4,0.7-0.9,1.1-1.6c0,0,0.1-0.1,0.1-0.2c0.1-0.2,0.3-0.4,0.4-0.6c0.1-0.2,0.2-0.3,0.3-0.5c0,0,0-0.1,0-0.1
					c0.1-0.1,0.1-0.3,0.2-0.4c0-0.1,0.1-0.2,0.1-0.3c0,0,0-0.1,0.1-0.1c0.1-0.1,0.1-0.3,0.2-0.5c0,0,0,0,0-0.1
					c0.1-0.2,0.1-0.3,0.1-0.5c0,0,0-0.1,0-0.1c0-0.1,0.1-0.3,0.1-0.4c0-0.1,0-0.2,0.1-0.3c0-0.1,0-0.2,0-0.2c0-0.1,0-0.3,0.1-0.4
					c0-0.1,0-0.1,0-0.2c0-0.2,0-0.4,0.1-0.6v0C36.6,19.8,35.9,18,34.7,16.7z M14.3,26c-1.3-2.1-1.6-3.8-1.6-4.6
					c-0.1-1.1,0.3-2.3,1.1-3.1c0.7-0.8,1.7-1.2,2.7-1.2c1,0,2,0.4,2.7,1.1c0.7,0.7,1.1,1.7,1.1,2.7C20.3,23.8,18.5,25.4,14.3,26z
					 M34.1,21.4c0,0.8-0.3,2.5-1.6,4.6c-4.2-0.6-6-2.2-6-5c0-1,0.4-2,1.1-2.7c0.7-0.7,1.7-1.1,2.7-1.1c1,0,2,0.4,2.7,1.2
					C33.8,19.2,34.2,20.3,34.1,21.4z" class="st1" id="Shape-Copy"></path>
			</g>
			<path d="M58.7,30.5c0,6.5,3.7,10.6,10.6,9.9v-5.5c-3,0.2-4.5-1-4.5-4.4V6.3h-6.1V30.5z M83.2,16.2
				c6.6,0,11.9,5.4,11.9,12.5S89.8,41,83.2,41c-6.6,0-11.9-5.3-11.9-12.4S76.6,16.2,83.2,16.2z M83.2,35.4c3.2,0,5.8-2.8,5.8-6.8
				c0-4.1-2.6-6.9-5.8-6.9s-5.8,2.8-5.8,6.9C77.4,32.7,80,35.4,83.2,35.4z M110,16.2c6.6,0,11.9,5.4,11.9,12.5S116.6,41,110,41
				c-6.6,0-11.9-5.3-11.9-12.4S103.4,16.2,110,16.2z M110,35.4c3.2,0,5.8-2.8,5.8-6.8c0-4.1-2.6-6.9-5.8-6.9s-5.8,2.8-5.8,6.9
				C104.1,32.7,106.8,35.4,110,35.4z M149.9,28.6c0,6.8-5.1,12.4-11.3,12.4c-2.8,0-5.1-0.9-6.9-2.8V51h-6.1V28.6
				c0-6.8,5-12.4,12.2-12.4C144.9,16.2,149.9,21.7,149.9,28.6z M143.9,28.6c0-3.8-2.7-6.7-6.1-6.7s-6.1,3-6.1,6.7
				c0,3.8,2.7,6.8,6.1,6.8S143.9,32.4,143.9,28.6z" class="st0" id="loop"></path>
		</g>
	</g>
</g>
</svg>
