<?xml version="1.0" encoding="UTF-8"?><svg id="Layer_1" xmlns="http://www.w3.org/2000/svg" viewBox="0 0 1408.58 315.43"><defs><style>.cls-1{fill:#170a69;}</style></defs><path class="cls-1" d="M958.81,209.77c.13-.51.19-1.04.32-1.54,4.09-16.54,8.22-33.06,12.28-49.62,2.26-9.29,5.04-18.47,4.69-28.23-.55-15.15-9.11-24.82-23.7-26.23-13.43-1.28-25.37,2.65-35.97,10.86-9.48,7.34-16.54,16.73-22.41,27.08-.53.95-1.1,1.89-1.66,2.82-.12-.05-.25-.11-.37-.16,8.63-34.86,17.24-69.74,25.92-104.77h-63.36c2.06,1.5,3.37,2.5,4.75,3.44,5.8,3.99,8.22,9.36,6.83,16.36-.59,2.98-.95,6.03-1.69,8.99-13.53,54.27-27.11,108.55-40.66,162.82-.4,1.66-.68,3.36-1.04,5.14h46.21c.32-1.03.63-1.91.86-2.81,3.84-15.53,7.62-31.05,11.53-46.55,2.98-11.81,5.18-23.89,10.65-34.93,4.24-8.6,9.43-16.44,17.47-22.04,3.37-2.35,7.07-3.64,11.22-3.57,5.96.11,9.44,3.77,8.84,9.76-.4,3.97-1.04,7.94-1.99,11.81-4.75,19.3-9.87,38.52-14.36,57.87-3.66,15.79,4.92,29.35,20.43,32.24,18.66,3.48,34.73-2.03,48.01-15.59.24-.24.35-.6.72-1.26-2.98.95-5.54,1.9-8.17,2.54-10.82,2.67-18.96-1.28-15.31-14.44h-.01Z"/><path class="cls-1" d="M1225.13,134.54c-2.51-13.25-10.11-23.39-23.24-28.15-10.12-3.68-20.5-3.38-30.64.32-14.12,5.19-23.75,15.57-31.71,27.82-.56.86-1.15,1.69-1.74,2.53-.16-.11-.33-.2-.49-.31,2.39-9.96,4.77-19.91,7.19-29.98h-61.21c1.55,1.3,2.57,2.18,3.61,3.01,4.84,3.82,7.19,8.71,6.17,14.94-.53,3.21-.98,6.45-1.75,9.6-11.51,46.42-23.07,92.85-34.62,139.27-1.7,6.81-3.38,13.61-5.12,20.61.86.12,1.36.24,1.87.24,14.11.01,28.23-.05,42.34.08,2.25,0,2.57-1.22,2.96-2.8,3.61-14.48,7.24-28.98,10.86-43.45,2.89-11.5,5.78-23.03,8.67-34.53,1.86,6.7,5.03,12.46,10.42,17.01,9.95,8.4,21.67,9.68,33.93,8.3,14.82-1.66,27.38-8.17,37.53-18.98,22.79-24.23,31.17-52.93,24.98-85.54h.01ZM1179.8,149.48c-.58,22.48-6.61,43.4-18.64,62.37-2.82,4.43-6.58,8.69-10.85,11.68-12.95,9.03-27.12,2.1-27.9-13.67-.36-6.94.56-14.1,1.95-20.93,2.17-10.59,5.14-21.04,7.98-31.48,2.46-9.04,6.55-17.33,12.95-24.29,5.68-6.17,12.28-10.53,21.26-9.58,4.47.48,7.66,2.71,9.82,6.54,3.4,6.03,3.45,12.68,3.44,19.35h-.01Z"/><path class="cls-1" d="M553.37,229.43c8.89,8.49,19.71,12.79,31.79,13.88,20.21,1.83,38.81-2.06,54.27-16.18,6.66-6.1,11.74-13.37,15.81-21.38-.25-.27-.51-.52-.76-.78-.96.83-1.99,1.58-2.85,2.49-11.06,11.76-24.11,18.25-40.76,16.57-10.62-1.06-20.47-8.21-23.86-18.38-2.69-8.09-2.61-16.36-1.71-24.69.23-2.13,1.3-2.62,3.29-2.8,11.51-1.06,23.08-1.82,34.5-3.57,12.26-1.89,23.82-6,33.89-13.71,13.77-10.53,19.2-37.19-6.47-48.41-11.9-5.19-24.33-5.34-36.91-3.76-38.57,4.84-71.52,36.22-75.11,75.56-1.55,17.09,1.97,32.74,14.91,45.11l-.03.04ZM588.86,162.64c5.16-16.29,11.85-31.8,24.67-43.68,2.73-2.53,6.42-4.51,10.02-5.55,6.71-1.97,11.06,1.62,11.34,8.68.63,16.22-5.46,29.61-17.71,40.07-8.1,6.91-17.69,10.83-28.24,12.36-.71.11-1.46,0-2.98,0,1.02-4.2,1.71-8.12,2.89-11.89h.01Z"/><path class="cls-1" d="M413.16,196.73c1.5,19.55,11.15,33.85,29.18,42.09,8.09,3.7,16.7,4.88,25.53,4.93,27.07.13,47.32-11.45,60.58-35.09.55-.98,1-1.99,1.5-3-.27-.24-.53-.48-.82-.74-.96.86-1.97,1.67-2.86,2.61-10.99,11.66-23.94,18.12-40.47,16.52-11.38-1.11-21.25-8.64-24.46-19.7-2.19-7.52-2.23-15.14-1.38-22.84.27-2.37,1.08-3.14,3.45-3.34,10.38-.8,20.8-1.4,31.09-2.89,12.66-1.85,24.83-5.5,35.51-13.08,5.82-4.13,9.72-9.56,11.86-16.29,3.42-10.78.24-21.21-8.41-28.41-5.08-4.23-10.99-6.69-17.32-7.97-18.2-3.66-35.79-1.2-52.69,6.34-28.91,12.89-53.11,43.72-50.28,80.87h-.01ZM468.93,148.07c4.99-10.97,10.4-21.76,19.91-29.6,2.97-2.45,6.79-4.27,10.51-5.3,5.14-1.43,9.15.99,9.67,6.26.55,5.54.49,11.46-.92,16.8-5.64,21.3-20.43,33.05-41.43,37.73-1.32.29-2.69.45-4.04.63-.4.07-.82-.03-1.66-.07,1.36-9.43,4.16-18.12,7.97-26.47h-.01Z"/><path class="cls-1" d="M323.59,241.22c2.62.03,3.62-.75,4.23-3.26,3.96-16.56,8.14-33.07,12.12-49.63,3.56-14.83,8.14-29.21,17.2-41.73,3.82-5.26,8.26-9.87,14.46-12.34,7.61-3.04,15.22-.44,17.55,6.14,2.51,7.11-1.38,18.12-9.84,19.19-.44.05-.84.44-1.32.71,4.47,3.69,12.79,5.08,20.03,3.45,13.23-2.97,22.87-14,24.03-27.52,1.58-18.28-11.09-30.24-29.27-27.78-8.63,1.18-15.66,5.28-21.75,11.22-8.48,8.28-14.26,18.43-19.62,28.85-.52.99-1.04,1.97-1.58,2.96-.21-.08-.43-.15-.66-.21,3.26-13.37,6.53-26.75,9.82-40.29h-61.22c1.67,1.43,2.82,2.43,4,3.4,4.37,3.6,6.65,8.1,5.83,13.86-.47,3.33-.9,6.69-1.71,9.94-7.53,30.29-15.15,60.57-22.72,90.86-.98,3.92-1.93,7.85-2.96,12.12h3.6c13.27,0,26.53-.08,39.8.08h0Z"/><path class="cls-1" d="M806.07,164.74c-8.05-5.51-16.69-10.18-25.04-15.27-5.47-3.34-11.18-6.38-16.3-10.2-8.06-6.03-8.39-17.36-1.02-24.26,7.19-6.74,16.08-7.45,25.14-6.04,3.38.52,7.06,1.94,9.72,4.04,9.13,7.28,7.33,21.25-3.58,27.42,1.06.95,1.95,1.95,3.02,2.65,5.02,3.34,10.62,3.97,16.37,2.98,7.13-1.22,12.75-4.73,14.71-12.09,1.97-7.36-.05-14-5.91-18.78-3.77-3.05-8.21-5.55-12.73-7.33-9.86-3.89-20.31-4.37-30.8-3.76-17.72,1.04-32.94,7.65-44.68,21.16-13.65,15.73-12.14,38.05,4.01,51.1,7.21,5.83,15.79,9.95,23.72,14.87,5.79,3.58,12.05,6.63,17.24,10.95,9.88,8.24,8.53,22.64-2.78,28.58-11.45,5.99-23.55,6.38-35.07-.11-7.37-4.16-10.91-11.09-10.4-19.58.4-6.67,3.29-11.93,11.1-13.63-1.47-1.06-2.39-1.9-3.42-2.5-7.29-3.99-14.92-4.35-22.57-1.55-8.95,3.26-12.99,10.63-11.27,20.03.98,5.38,3.54,10.1,8.02,13.16,4.64,3.18,9.55,6.3,14.78,8.21,14.97,5.48,30.52,5.91,46.09,3.06,14.38-2.63,26.84-9.12,36.78-20.01,12.1-13.25,15.69-38.9-5.15-53.13l.03.03Z"/><path class="cls-1" d="M1312.16,140.4c5.59,5.72,12.28,6.79,19.41,5.7,7.26-1.15,12.89-4.8,14.86-12.32,1.95-7.54-.39-14.15-6.37-18.91-3.64-2.89-7.92-5.26-12.25-6.95-9.87-3.86-20.3-4.39-30.79-3.78-16.53.94-30.91,6.86-42.61,18.74-16.26,16.49-15.1,40.54,3.17,54.7,6.91,5.36,15.03,9.17,22.55,13.77,5.82,3.56,12.05,6.65,17.23,10.99,9.29,7.81,8.35,20.43-1.43,27.6-9.4,6.9-29.07,6.74-38.33-.32-7.88-6.02-10.9-16.61-7.15-24.77,1.82-3.97,4.77-6.49,9.87-7.32-8.64-6.45-17.33-7.3-26.36-4.03-9.79,3.54-14.07,12.68-10.43,22.44,1.35,3.61,3.57,7.38,6.46,9.84,4.09,3.48,8.91,6.46,13.88,8.47,14.1,5.7,28.94,6.35,43.83,4.35,15.91-2.14,29.81-8.71,40.79-20.74,11.74-12.88,15.89-38.26-4.73-52.72-8.06-5.64-16.8-10.38-25.24-15.53-5.39-3.28-11.02-6.21-16.09-9.94-8.99-6.62-9.19-18.38-.51-25.46,8.32-6.78,18.01-6.99,27.86-4.4,7.05,1.85,10.98,6.79,11.7,14.06.79,7.89-1.83,12.58-9.31,16.54h0Z"/><path class="cls-1" d="M50.85,241.14c8.72,3.36,17.75,3.06,26.79,1.85,16.86-2.27,29.02-11.88,38.5-25.4-3.73,2.29-7.34,4.76-11.23,6.81-5.35,2.8-11.14,3.95-17.1,2.49-7.33-1.79-10.4-8.21-8.24-17.14,7.19-29.73,14.48-59.43,21.63-89.19.58-2.37,1.55-2.98,3.82-2.96,5.9.07,28.11.08,44.08.05-8.84,35.52-17.69,71.04-26.55,106.56-1.38,5.55-2.74,11.1-4.13,16.7.74.13,1.04.25,1.34.25,14.34,0,28.66-.03,42.98.07,2.02,0,2.37-1.04,2.75-2.62,3.91-15.93,7.85-31.86,11.86-47.77,2.85-11.3,5-22.83,10.12-33.45,4.21-8.72,9.4-16.69,17.45-22.45,3.53-2.54,7.4-3.93,11.78-3.81,5.55.15,8.8,3.2,8.53,8.72-.19,4.07-.8,8.18-1.77,12.14-4.67,19.1-9.67,38.13-14.27,57.25-4.04,16.76,4.32,30.71,20.42,33.63,18.56,3.37,34.52-2.15,47.74-15.58.24-.25.33-.64.67-1.31-2.75.88-5.1,1.77-7.5,2.39-11.49,2.92-19.46-.84-15.82-14.99,4.61-17.93,8.89-35.93,13.36-53.9,2.31-9.31,4.65-18.56,3.49-28.34-1.48-12.38-8.93-20.53-21.21-22.37-14.23-2.14-26.88,1.87-38.14,10.55-9.41,7.26-16.4,16.58-22.25,26.81-.49.86-1.03,1.7-1.52,2.54-.15-.07-.32-.13-.48-.2,8.59-34.72,17.17-69.42,25.81-104.41h-62.51c-.09.2-.17.41-.27.66,1.69,1.24,3.36,2.46,5.03,3.7,4.51,3.33,6.82,7.7,6.07,13.36-.48,3.64-.92,7.32-1.81,10.87-3.14,12.68-6.3,25.34-9.46,38.02h-47.2c3.84-15.29,7.6-30.21,11.35-45.15-.28-.25-.58-.49-.84-.75-.98.75-2.21,1.31-2.88,2.27-16.28,23.93-38.18,39.69-66.52,46.22-2.25.53-3.32,1.56-2.69,4.31h13.45c-.33,1.54-.53,2.65-.8,3.73-7.09,28.78-14.23,57.55-21.3,86.34-3.69,15.02,3.08,27.96,17.47,33.47h-.03Z"/><path class="cls-1" d="M1059.3,221.71c-1.04.36-2.07.87-3.17,1.04-4.31.74-8.64,1.86-12.96,1.89-4.96.03-8.4-4.43-7.94-9.43.21-2.41.68-4.8,1.26-7.14,6.81-27.35,13.65-54.67,20.47-81.99,1.59-6.39,3.13-12.8,4.75-19.36h-61.2c1.26,1.1,1.97,1.81,2.78,2.39,6.42,4.59,8.35,10.79,6.59,18.32-1.23,5.22-2.47,10.44-3.77,15.65-5.24,21.13-10.78,42.18-15.7,63.36-3.65,15.75,5.14,29.1,20.6,32.18,10.27,2.05,20.35.94,30.01-3.14,7.15-3.02,13.32-7.49,18.27-13.73v-.03Z"/><path class="cls-1" d="M1047.64,37.45c-15.69.05-27.36,11.57-27.34,26.97.03,13.84,10.16,23.66,24.49,23.71,15.46.07,27.59-11.78,27.54-26.92-.04-14.08-10.16-23.83-24.69-23.78h0Z"/><path class="cls-1" d="M1370.51,105.12c0,6.04-4.74,10.78-10.91,10.78s-10.98-4.74-10.98-10.78,4.87-10.65,10.98-10.65,10.91,4.74,10.91,10.65ZM1351.34,105.12c0,4.74,3.51,8.51,8.32,8.51s8.12-3.77,8.12-8.45-3.44-8.57-8.19-8.57-8.25,3.83-8.25,8.51ZM1357.91,110.71h-2.47v-10.65c.97-.19,2.34-.32,4.09-.32,2.01,0,2.92.32,3.7.78.59.45,1.04,1.3,1.04,2.34,0,1.17-.91,2.08-2.21,2.47v.13c1.04.39,1.62,1.17,1.95,2.6.32,1.62.52,2.27.78,2.66h-2.66c-.33-.39-.52-1.36-.85-2.6-.19-1.17-.84-1.69-2.21-1.69h-1.17v4.29ZM1357.97,104.66h1.17c1.36,0,2.47-.45,2.47-1.56,0-.97-.71-1.62-2.27-1.62-.65,0-1.1.07-1.36.13v3.05Z"/></svg>