<svg width="90" height="32" viewBox="0 0 90 32" fill="none" xmlns="http://www.w3.org/2000/svg">
<path d="M15.0298 1.32333L22.4227 6.36603C23.8048 7.30885 24.6301 8.90299 24.6301 10.6307V15.0926H20.9964V10.6307C20.9964 10.1948 20.7882 9.79254 20.4396 9.55476L13.0465 4.51206C12.6427 4.23672 12.1199 4.23497 11.7147 4.50747L4.19729 9.56349C3.84447 9.80079 3.63376 10.2048 3.63376 10.6439V15.0926H0V10.6439C0 8.90321 0.834977 7.3023 2.23355 6.36166L9.75112 1.30564C11.3576 0.225047 13.4296 0.232033 15.0298 1.32333Z" fill="white"/>
<path d="M12.315 27.6947C7.52816 27.6947 3.63376 23.6162 3.63376 18.6033H0C0 25.7147 5.52452 31.5 12.315 31.5C19.1057 31.5 24.6301 25.7147 24.6301 18.6033H20.9964C20.9964 23.6162 17.1019 27.6947 12.315 27.6947Z" fill="white"/>
<path d="M17.6379 18.6084H14.0043C14.0043 19.5837 13.2464 20.3773 12.315 20.3773C11.3836 20.3773 10.6258 19.5837 10.6258 18.6084H6.99215C6.99215 21.6821 9.38005 24.1826 12.315 24.1826C15.2502 24.1826 17.6379 21.6821 17.6379 18.6084Z" fill="white"/>
<path fill-rule="evenodd" clip-rule="evenodd" d="M57.924 22.4671C59.6223 22.4671 60.9898 21.5894 62.2027 20.2266L63.9672 22.1668H67.3856L63.8569 18.3097L65.9961 15.8384V12.3739L62.2688 16.5775L59.6665 13.7366L60.3501 13.2054C61.4527 12.3277 62.5554 11.1266 62.5554 9.50999C62.5554 7.06168 60.725 5.44482 58.277 5.44482C56.2477 5.44482 54.0864 6.92303 54.0864 9.6255C54.0864 11.1498 55.1231 12.4201 55.873 13.2284L56.1376 13.5287L55.9831 13.6442C54.3512 14.9144 53.2703 16.0693 53.2703 18.1711C53.2703 20.3192 54.9025 22.4671 57.924 22.4671ZM58.0785 12.0275L57.6374 11.5193C57.0859 10.8958 56.6007 10.2489 56.6007 9.4637C56.6007 8.28594 57.4829 7.70842 58.2989 7.70842C59.3135 7.70842 60.0414 8.49359 60.0414 9.4637C60.0414 10.0873 59.7989 10.6878 58.9828 11.3346L58.0785 12.0275ZM60.5926 18.4714L60.5707 18.4945C59.7766 19.3952 59.0047 20.042 57.968 20.042C56.6891 20.042 55.8949 19.0027 55.8949 17.9862C55.8949 16.9239 56.4243 16.2539 57.1743 15.6768L57.7034 15.261L60.5926 18.4714Z" fill="white"/>
<path fill-rule="evenodd" clip-rule="evenodd" d="M41.4957 26.555V10.9188H43.9658V12.4432C44.4951 11.4731 45.7303 10.6648 47.3845 10.6648C50.5604 10.6648 52.3466 13.2054 52.3466 16.5312C52.3466 19.9034 50.3838 22.444 47.2961 22.444C45.7524 22.444 44.5833 21.751 44.0321 20.8966V26.555H41.4957ZM46.8993 13.0438C45.223 13.0438 44.01 14.4295 44.01 16.5312C44.01 18.6792 45.223 20.0651 46.8993 20.0651C48.5974 20.0651 49.7883 18.6792 49.7883 16.5312C49.7883 14.4295 48.6195 13.0438 46.8993 13.0438Z" fill="white"/>
<path d="M34.0239 22.4902C31.4656 22.4902 29.9658 20.5038 29.9658 18.0095V10.9188H32.5241V17.5244C32.5241 18.9102 33.1417 20.0882 34.6854 20.0882C36.1631 20.0882 36.9351 19.0488 36.9351 17.5707V10.9188H39.4934V20.1112C39.4934 21.0352 39.5595 21.751 39.6037 22.1668H37.1557C37.1115 21.9129 37.0675 21.3815 37.0675 20.9196C36.5382 21.9359 35.2809 22.4902 34.0239 22.4902Z" fill="white"/>
<path d="M71.6769 22.4902C69.1188 22.4902 67.6191 20.5038 67.6191 18.0095V10.9188H70.1774V17.5244C70.1774 18.9102 70.7947 20.0882 72.3387 20.0882C73.8163 20.0882 74.5882 19.0488 74.5882 17.5707V10.9188H77.1467V20.1112C77.1467 21.0352 77.2128 21.751 77.257 22.1668H74.809C74.7648 21.9129 74.7206 21.3815 74.7206 20.9196C74.1912 21.9359 72.9341 22.4902 71.6769 22.4902Z" fill="white"/>
<path fill-rule="evenodd" clip-rule="evenodd" d="M79.1489 10.9188V26.555H81.6853V20.8966C82.2366 21.751 83.4056 22.444 84.9496 22.444C88.037 22.444 90.0001 19.9034 90.0001 16.5312C90.0001 13.2054 88.2136 10.6648 85.0376 10.6648C83.3835 10.6648 82.1484 11.4731 81.6192 12.4432V10.9188H79.1489ZM81.6632 16.5312C81.6632 14.4295 82.8763 13.0438 84.5524 13.0438C86.2727 13.0438 87.4418 14.4295 87.4418 16.5312C87.4418 18.6792 86.2508 20.0651 84.5524 20.0651C82.8763 20.0651 81.6632 18.6792 81.6632 16.5312Z" fill="white"/>
</svg>
